<?xml version="1.0" encoding="UTF-8"?>
<svg width="47px" height="46px" viewBox="0 0 47 46" version="1.1" xmlns="http://www.w3.org/2000/svg" xmlns:xlink="http://www.w3.org/1999/xlink">
    <!-- Generator: Sketch 54.1 (76490) - https://sketchapp.com -->
    <title>holmusk_master_logo</title>
    <desc>Created with Sketch.</desc>
    <g id="Page-1" stroke="none" stroke-width="1" fill="none" fill-rule="evenodd">
        <g id="01_holmusk_tech_blog_home" transform="translate(-241.000000, -47.000000)" fill="#192D5B">
            <path d="M241,47 L241,93 L287.146677,93 L287.146677,47 L241,47 Z M264.715942,81.229765 L262.560552,81.229765 L262.560552,72.1018277 C262.560552,70.5642486 261.737648,69.1434669 260.40182,68.3746773 C259.065991,67.6058878 257.420183,67.6058878 256.084354,68.3746773 C254.748526,69.1434669 253.925621,70.5642486 253.925621,72.1018277 L253.925621,81.229765 L251.770236,81.229765 L251.770236,58.4833188 L253.939009,58.4833188 L253.939009,67.2776327 C255.11776,66.2123701 256.652022,65.6224983 258.243087,65.6228605 C261.823804,65.6338978 264.719647,68.5324769 264.715938,72.1018277 L264.715942,81.229765 Z M276.376442,71.8282565 L276.376457,80.9561938 L274.221056,80.9561938 L274.221056,71.8282565 L274.221056,71.8282565 C274.232151,70.0061247 273.089147,68.3751399 271.368998,67.7585745 C269.648849,67.1420092 267.725622,67.6739431 266.570106,69.0858718 C266.358586,68.5062343 266.080033,67.9531384 265.740081,67.437772 L265.5058,67.0841311 C266.692106,65.974285 268.256573,65.3543025 269.883509,65.3492892 L269.883509,65.3492892 C270.070934,65.3492892 270.258359,65.3492892 270.445784,65.3492892 L270.586353,65.3492892 L271.13524,65.4360313 L271.249033,65.4360313 L271.697514,65.5494633 L271.831389,65.5894981 C271.998733,65.6428779 272.159383,65.7029301 272.320032,65.7696548 L272.473989,65.8363795 C272.60117,65.8897592 272.728351,65.9564839 272.855532,66.0232086 L272.989407,66.0966057 C273.127856,66.1688192 273.261958,66.2490252 273.391032,66.3368146 L273.565069,66.4502466 L273.899756,66.7038004 L274.100569,66.8706121 L274.328156,67.0774587 L274.502193,67.2509428 C274.6026,67.3510299 274.696312,67.4644619 274.796718,67.5712214 C274.897124,67.6779809 274.903818,67.7113432 274.964062,67.7780679 L275.111324,67.9782419 L275.258587,68.191761 L275.258587,68.191761 C275.989664,69.2642511 276.379247,70.5316032 276.376442,71.8282565 L276.376442,71.8282565 Z" id="holmusk_master_logo"></path>
        </g>
    </g>
</svg>