<?xml version="1.0" encoding="UTF-8"?>
<svg width="341px" height="46px" viewBox="0 0 341 46" version="1.1" xmlns="http://www.w3.org/2000/svg" xmlns:xlink="http://www.w3.org/1999/xlink">
    <!-- Generator: Sketch 63.1 (92452) - https://sketch.com -->
    <title>Group</title>
    <desc>Created with Sketch.</desc>
    <g id="Page-1" stroke="none" stroke-width="1" fill="none" fill-rule="evenodd">
        <g id="Artboard" transform="translate(-241.000000, -47.000000)" fill="#192D5B">
            <g id="Group" transform="translate(241.000000, 47.000000)">
                <path d="M7.81597009e-14,1.70530257e-13 L7.81597009e-14,46 L46.1466775,46 L46.1466775,1.70530257e-13 L7.81597009e-14,1.70530257e-13 Z M23.7159418,34.229765 L21.5605524,34.229765 L21.5605524,25.1018277 C21.5605524,23.5642486 20.7376482,22.1434669 19.4018197,21.3746773 C18.0659912,20.6058878 16.4201826,20.6058878 15.0843541,21.3746773 C13.7485257,22.1434669 12.9256214,23.5642486 12.9256214,25.1018277 L12.9256214,34.229765 L10.7702356,34.229765 L10.7702356,11.4833188 L12.9390089,11.4833188 L12.9390089,20.2776327 C14.1177602,19.2123701 15.6520221,18.6224983 17.2430869,18.6228605 C20.8238039,18.6338978 23.7196469,21.5324769 23.7159418,25.1018277 L23.7159418,34.229765 Z M35.376457,24.8282565 L35.376457,33.9561938 L33.2210561,33.9561938 L33.2210561,24.8282565 L33.2210561,24.8282565 C33.2321514,23.0061247 32.0891471,21.3751399 30.3689979,20.7585745 C28.6488486,20.1420092 26.725622,20.6739431 25.5701056,22.0858718 C25.3585859,21.5062343 25.080033,20.9531384 24.7400812,20.437772 L24.5058002,20.0841311 C25.6921058,18.974285 27.256573,18.3543025 28.8835093,18.3492892 L28.8835093,18.3492892 C29.0709342,18.3492892 29.2583591,18.3492892 29.4457839,18.3492892 L29.5863526,18.3492892 L30.1352396,18.4360313 L30.2490333,18.4360313 L30.6975142,18.5494633 L30.8313891,18.5894981 C30.9987327,18.6428779 31.1593826,18.7029301 31.3200325,18.7696548 L31.4739886,18.8363795 C31.6011698,18.8897592 31.7283509,18.9564839 31.8555321,19.0232086 L31.989407,19.0966057 C32.1278556,19.1688192 32.2619585,19.2490252 32.3910317,19.3368146 L32.565069,19.4502466 L32.8997563,19.7038004 L33.1005686,19.8706121 L33.328156,20.0774587 L33.5021933,20.2509428 C33.6025995,20.3510299 33.6963119,20.4644619 33.7967181,20.5712214 C33.8971243,20.6779809 33.903818,20.7113432 33.9640617,20.7780679 L34.1113241,20.9782419 L34.2585865,21.191761 L34.2585865,21.191761 C34.9896643,22.2642511 35.3792472,23.5316032 35.376457,24.8282565 L35.376457,24.8282565 Z" id="holmusk_master_logo"></path>
                <path d="M74.424,38 L74.424,28.208 L84.536,28.208 L84.536,38 L89.496,38 L89.496,14 L84.536,14 L84.536,23.76 L74.424,23.76 L74.424,14 L69.432,14 L69.432,38 L74.424,38 Z M100.072,38.32 C101.693333,38.32 103.181333,37.952 104.536,37.216 C105.890667,36.48 106.957333,35.472 107.736,34.192 C108.514667,32.912 108.904,31.5146667 108.904,30 C108.904,28.4853333 108.514667,27.088 107.736,25.808 C106.957333,24.528 105.890667,23.52 104.536,22.784 C103.181333,22.048 101.693333,21.68 100.072,21.68 C98.4506667,21.68 96.968,22.048 95.624,22.784 C94.28,23.52 93.2133333,24.528 92.424,25.808 C91.6346667,27.088 91.24,28.4853333 91.24,30 C91.24,31.5146667 91.6346667,32.912 92.424,34.192 C93.2133333,35.472 94.28,36.48 95.624,37.216 C96.968,37.952 98.4506667,38.32 100.072,38.32 Z M100.072,34 C98.9626667,34 98.0186667,33.6106667 97.24,32.832 C96.4613333,32.0533333 96.072,31.1093333 96.072,30 C96.072,28.8693333 96.4613333,27.9146667 97.24,27.136 C98.0186667,26.3573333 98.9626667,25.968 100.072,25.968 C100.797333,25.968 101.469333,26.1493333 102.088,26.512 C102.706667,26.8746667 103.197333,27.3653333 103.56,27.984 C103.922667,28.6026667 104.104,29.2746667 104.104,30 C104.104,31.1093333 103.709333,32.0533333 102.92,32.832 C102.130667,33.6106667 101.181333,34 100.072,34 Z M115.48,38 L115.48,12.4 L110.648,12.4 L110.648,38 L115.48,38 Z M123.176,38 L123.176,28.624 C123.176,27.856 123.384,27.2213333 123.8,26.72 C124.216,26.2186667 124.808,25.968 125.576,25.968 C126.301333,25.968 126.893333,26.192 127.352,26.64 C127.810667,27.088 128.04,27.664 128.04,28.368 L128.04,28.368 L128.04,38 L132.84,38 L132.84,28.624 C132.84,27.856 133.048,27.2213333 133.464,26.72 C133.88,26.2186667 134.482667,25.968 135.272,25.968 C135.997333,25.968 136.584,26.192 137.032,26.64 C137.48,27.088 137.704,27.664 137.704,28.368 L137.704,28.368 L137.704,38 L142.536,38 L142.536,27.856 C142.536,26.704 142.28,25.6586667 141.768,24.72 C141.256,23.7813333 140.546667,23.04 139.64,22.496 C138.733333,21.952 137.714667,21.68 136.584,21.68 C135.56,21.68 134.637333,21.9093333 133.816,22.368 C132.994667,22.8266667 132.317333,23.4613333 131.784,24.272 C131.272,23.4613333 130.605333,22.8266667 129.784,22.368 C128.962667,21.9093333 128.082667,21.68 127.144,21.68 C126.354667,21.68 125.618667,21.856 124.936,22.208 C124.253333,22.56 123.666667,23.0453333 123.176,23.664 L123.176,23.664 L123.176,22 L118.344,22 L118.344,38 L123.176,38 Z M151.992,38.32 C154.317333,38.32 156.125333,37.744 157.416,36.592 C158.706667,35.44 159.352,33.872 159.352,31.888 L159.352,31.888 L159.352,22 L154.52,22 L154.52,31.312 C154.52,32.1013333 154.28,32.7466667 153.8,33.248 C153.32,33.7493333 152.717333,34 151.992,34 C151.245333,34 150.637333,33.7493333 150.168,33.248 C149.698667,32.7466667 149.464,32.1013333 149.464,31.312 L149.464,31.312 L149.464,22 L144.632,22 L144.632,31.888 C144.632,33.872 145.272,35.44 146.552,36.592 C147.832,37.744 149.645333,38.32 151.992,38.32 Z M167.208,38.32 C169.213333,38.32 170.754667,37.8293333 171.832,36.848 C172.909333,35.8666667 173.448,34.5973333 173.448,33.04 C173.448,31.7386667 173.010667,30.7093333 172.136,29.952 C171.261333,29.1946667 170.162667,28.592 168.84,28.144 L168.84,28.144 L168.136,27.92 C167.218667,27.6213333 166.562667,27.3653333 166.168,27.152 C165.773333,26.9386667 165.576,26.64 165.576,26.256 C165.576,25.8933333 165.72,25.6213333 166.008,25.44 C166.296,25.2586667 166.685333,25.168 167.176,25.168 C167.794667,25.168 168.429333,25.3013333 169.08,25.568 C169.730667,25.8346667 170.269333,26.1706667 170.696,26.576 L170.696,26.576 L173.224,23.664 C172.349333,22.9813333 171.373333,22.48 170.296,22.16 C169.218667,21.84 168.221333,21.68 167.304,21.68 C166.002667,21.68 164.856,21.8933333 163.864,22.32 C162.872,22.7466667 162.109333,23.3493333 161.576,24.128 C161.042667,24.9066667 160.776,25.7866667 160.776,26.768 C160.776,27.9413333 161.138667,28.88 161.864,29.584 C162.589333,30.288 163.570667,30.864 164.808,31.312 L164.808,31.312 L165.96,31.696 C166.898667,31.9946667 167.565333,32.256 167.96,32.48 C168.354667,32.704 168.552,33.0186667 168.552,33.424 C168.552,33.808 168.392,34.096 168.072,34.288 C167.752,34.48 167.314667,34.576 166.76,34.576 C166.077333,34.576 165.378667,34.4266667 164.664,34.128 C163.949333,33.8293333 163.304,33.424 162.728,32.912 L162.728,32.912 L160.168,36.144 C161.064,36.848 162.136,37.3866667 163.384,37.76 C164.632,38.1333333 165.906667,38.32 167.208,38.32 Z M179.672,38 L179.672,30.768 L185.336,38 L191.608,38 L183.992,29.232 L191.032,22 L185.208,22 L179.672,27.664 L179.672,12.4 L174.84,12.4 L174.84,38 L179.672,38 Z M202.616,38 L202.68,37.136 C201.08,37.008 200.632,36.848 200.792,36.048 L201.656,29.84 L202.488,29.712 C209.24,28.688 211.832,26.352 212.248,23.6 C212.632,20.816 211.576,18.128 205.368,18.128 C203.64,18.128 200.856,18.256 198.2,18.128 L198.136,18.992 C199.736,19.152 200.024,19.76 199.896,20.656 L197.752,35.92 C197.656,36.72 197.08,37.008 195.448,37.136 L195.384,38 C197.816,37.904 200.248,37.904 202.616,38 Z M201.784,28.848 L203.16,19.152 C203.704,19.12 204.6,19.12 205.752,19.12 C208.568,19.12 209.528,21.008 209.24,23.184 C208.824,26 207.192,28.08 202.648,28.72 L201.784,28.848 Z M215.656,38 C216.04,33.84 219.08,23.632 221.352,23.632 C221.96,23.632 222.056,24.976 223.336,24.976 C224.264,24.976 224.936,24.176 224.936,23.312 C224.936,22.512 224.392,21.68 223.016,21.68 C220.328,21.68 218.376,24.912 216.552,30.352 L217.736,23.664 C217.928,22.544 217.608,21.712 216.36,21.712 C215.112,21.712 213.352,22.512 211.816,24.56 C211.624,24.816 211.624,24.944 211.784,25.104 C211.976,25.296 212.072,25.328 212.36,25.04 C213,24.368 213.608,23.92 214.248,23.92 C214.696,23.92 214.856,24.24 214.76,24.88 L212.84,38 L215.656,38 Z M228.024,38.224 C232.44,38.224 236.088,33.104 236.088,27.952 C236.088,23.76 233.784,21.712 230.648,21.712 C226.392,21.712 222.488,26.64 222.488,31.792 C222.488,36.08 225.112,38.224 228.024,38.224 Z M228.312,37.36 C226.584,37.36 225.56,35.632 225.56,32.4 C225.56,28.016 227.256,22.544 230.36,22.544 C231.992,22.544 233.016,24.112 233.016,27.44 C233.016,31.696 231.32,37.36 228.312,37.36 Z M245.992,38.224 C247.208,38.224 248.968,37.424 250.216,35.632 C250.44,35.312 250.44,35.152 250.248,34.992 C250.056,34.832 249.96,34.832 249.768,35.024 C249.32,35.504 248.584,36.112 248.008,36.112 C247.528,36.112 247.368,35.824 247.464,35.184 L250.216,16.912 C250.312,16.368 249.992,16.112 249.512,16.112 C248.808,16.112 247.944,16.816 245.352,17.232 L245.224,18.096 C246.344,17.968 247.176,18.448 246.984,19.632 L246.632,21.776 C246.184,21.744 245.832,21.712 245.384,21.712 C239.56,21.712 235.496,27.76 235.496,33.36 C235.496,37.168 237.448,38.224 239.56,38.224 C242.568,38.224 243.848,35.952 245.032,32.944 L244.424,36.272 C244.296,37.136 244.584,38.224 245.992,38.224 Z M240.68,36.848 C239.592,36.848 238.632,35.568 238.632,33.072 C238.632,29.84 240.136,22.576 244.776,22.576 C245.32,22.576 246.056,22.704 246.408,23.344 L245.832,27.408 C245.32,30.864 243.08,36.848 240.68,36.848 Z M261.4,38.256 C262.712,38.256 264.472,37.456 266.008,35.408 C266.2,35.152 266.2,35.024 266.04,34.864 C265.848,34.672 265.752,34.64 265.464,34.928 C264.824,35.568 264.216,36.048 263.576,36.048 C263.128,36.048 263,35.728 263.096,35.088 L264.984,21.968 L262.296,21.968 C261.048,31.312 257.848,36.976 255.192,36.976 C253.944,36.976 253.592,35.76 254.104,33.136 L255.8,23.696 C255.928,22.832 255.64,21.744 254.296,21.744 C253.016,21.744 251.256,22.544 250.008,24.336 C249.784,24.656 249.784,24.816 249.976,24.976 C250.168,25.136 250.264,25.136 250.456,24.944 C250.904,24.464 251.64,23.856 252.216,23.856 C252.696,23.856 252.888,24.144 252.76,24.784 L251.192,33.136 C250.488,37.136 252.056,38.256 254.04,38.256 C257.464,38.256 259.704,35.056 261.4,29.744 L260.152,36.304 C259.928,37.424 260.216,38.256 261.4,38.256 Z M270.28,38.224 C273.032,38.224 275.08,36.464 276.552,34.096 C276.776,33.744 276.808,33.36 276.456,33.36 L276.2,33.36 C275.976,33.36 275.88,33.424 275.688,33.68 C274.6,35.216 273.16,36.432 271.56,36.432 C269.704,36.432 268.552,34.736 268.552,31.76 C268.552,27.664 270.632,22.512 273.768,22.512 C275.72,22.512 274.824,24.304 274.824,25.552 C274.824,26.224 275.336,26.704 276.04,26.704 C276.936,26.704 277.576,25.936 277.576,24.752 C277.576,23.152 276.328,21.712 274.12,21.712 C269.704,21.712 265.544,27.152 265.544,32.72 C265.544,36.688 267.688,38.224 270.28,38.224 Z M279.416,38.224 C280.664,38.224 282.424,37.424 283.672,35.632 C283.896,35.312 283.896,35.152 283.704,34.992 C283.512,34.832 283.416,34.832 283.224,35.024 C282.776,35.504 282.008,36.112 281.464,36.112 C280.984,36.112 280.856,35.824 280.952,35.184 L282.744,23.024 L285.24,23.024 C285.4,23.024 285.464,22.96 285.496,22.8 L285.592,22.288 C285.624,22.096 285.496,22 285.336,22 L282.904,22 L283.544,17.616 L280.664,17.616 L280.024,22 L277.56,22 C277.4,22 277.336,22.064 277.304,22.224 L277.208,22.768 C277.176,22.96 277.304,23.024 277.464,23.024 L279.864,23.024 L277.912,36.272 C277.784,37.136 278.04,38.224 279.416,38.224 Z M296.408,38 C301.24,38 305.176,35.984 305.176,31.76 C305.176,29.232 303.384,27.472 300.248,27.056 C303.512,25.744 304.408,24.272 304.408,22.32 C304.408,20.272 303,18.128 297.528,18.128 C296.312,18.128 294.936,18.192 293.336,18.192 C292.536,18.192 291.704,18.16 290.808,18.128 L290.744,18.992 C291.96,19.12 292.664,19.536 292.504,20.656 L290.36,35.92 C290.232,36.72 289.688,37.008 288.056,37.136 L287.96,38 L296.408,38 Z M294.552,27.408 L295.768,19.152 C296.312,19.12 296.76,19.12 297.88,19.12 C300.44,19.12 301.368,20.496 301.368,22.096 C301.368,25.328 299.48,26.64 296.216,27.152 L294.552,27.408 Z M293.368,36.048 L294.456,28.336 L298.168,27.76 C300.664,27.76 302.008,29.392 302.008,31.568 C302.008,34.864 299.992,36.976 296.344,36.976 C293.56,36.976 293.24,37.04 293.368,36.048 Z M307.016,38.224 C308.264,38.224 310.056,37.424 311.304,35.632 C311.496,35.312 311.496,35.152 311.336,34.992 C311.144,34.832 311.048,34.832 310.856,35.024 C310.376,35.504 309.672,36.112 309.096,36.112 C308.616,36.112 308.424,35.824 308.52,35.184 L311.432,16.912 C311.528,16.368 311.208,16.112 310.728,16.112 C310.024,16.112 309.16,16.816 306.568,17.232 L306.44,18.096 C307.592,17.968 308.424,18.32 308.2,19.632 L305.544,36.272 C305.384,37.136 305.64,38.224 307.016,38.224 Z M316.536,38.224 C320.952,38.224 324.6,33.104 324.6,27.952 C324.6,23.76 322.296,21.712 319.16,21.712 C314.904,21.712 311,26.64 311,31.792 C311,36.08 313.624,38.224 316.536,38.224 Z M316.824,37.36 C315.096,37.36 314.072,35.632 314.072,32.4 C314.072,28.016 315.768,22.544 318.872,22.544 C320.504,22.544 321.528,24.112 321.528,27.44 C321.528,31.696 319.832,37.36 316.824,37.36 Z M328.36,44.944 C332.584,44.944 337.192,42.896 337.192,39.248 C337.192,36.944 335.24,36.016 332.2,35.536 L327.72,34.864 C326.76,34.704 326.12,34.608 326.12,34.064 C326.12,33.52 326.6,33.328 329.448,33.072 C335.112,32.592 337.416,29.712 337.416,26.736 C337.416,25.776 337.192,25.2 337.192,24.624 C337.192,24.368 337.32,24.08 337.8,24.08 C338.184,24.08 338.408,24.24 338.888,24.24 C339.784,24.24 340.264,23.664 340.264,22.992 C340.264,22.224 339.592,21.744 338.792,21.744 C337.704,21.744 337,22.544 336.552,23.792 C335.784,22.896 334.536,21.712 332.008,21.712 C328.168,21.712 325.16,24.464 325.16,27.792 C325.16,29.68 326.152,31.28 327.944,32.4 C325.704,32.656 323.944,33.136 323.944,34.832 C323.944,35.76 324.424,36.656 326.28,37.008 L332.008,38.032 C333.608,38.32 334.568,38.672 334.568,40.208 C334.568,42.928 331.496,44.08 328.776,44.08 C326.504,44.08 325.032,43.248 325.032,41.552 C325.032,40.176 325.704,40.08 325.704,39.056 C325.704,38.448 325.192,38 324.456,38 C323.24,38 322.376,39.312 322.376,40.88 C322.376,43.728 325.064,44.944 328.36,44.944 Z M330.6,32.144 C328.84,32.144 328.04,30.576 328.04,28.56 C328.04,25.744 329.544,22.48 332.04,22.48 C333.896,22.48 334.568,24.24 334.568,26.128 C334.568,29.008 333.032,32.144 330.6,32.144 Z" id="HolmuskProductBlog" fill-rule="nonzero"></path>
            </g>
        </g>
    </g>
</svg>