<?xml version="1.0" encoding="UTF-8"?>
<svg width="303px" height="46px" viewBox="0 0 303 46" version="1.1" xmlns="http://www.w3.org/2000/svg" xmlns:xlink="http://www.w3.org/1999/xlink">
    <!-- Generator: Sketch 54.1 (76490) - https://sketchapp.com -->
    <title>Group 5</title>
    <desc>Created with Sketch.</desc>
    <g id="Page-1" stroke="none" stroke-width="1" fill="none" fill-rule="evenodd">
        <g id="Artboard" transform="translate(-159.000000, -69.000000)" fill="#192D5B">
            <g id="Group-5" transform="translate(159.000000, 69.000000)">
                <path d="M7.81597009e-14,1.70530257e-13 L7.81597009e-14,46 L46.1466775,46 L46.1466775,1.70530257e-13 L7.81597009e-14,1.70530257e-13 Z M23.7159418,34.229765 L21.5605524,34.229765 L21.5605524,25.1018277 C21.5605524,23.5642486 20.7376482,22.1434669 19.4018197,21.3746773 C18.0659912,20.6058878 16.4201826,20.6058878 15.0843541,21.3746773 C13.7485257,22.1434669 12.9256214,23.5642486 12.9256214,25.1018277 L12.9256214,34.229765 L10.7702356,34.229765 L10.7702356,11.4833188 L12.9390089,11.4833188 L12.9390089,20.2776327 C14.1177602,19.2123701 15.6520221,18.6224983 17.2430869,18.6228605 C20.8238039,18.6338978 23.7196469,21.5324769 23.7159383,25.1018277 L23.7159418,34.229765 Z M35.3764419,24.8282565 L35.376457,33.9561938 L33.2210561,33.9561938 L33.2210561,24.8282565 L33.2210561,24.8282565 C33.2321514,23.0061247 32.0891471,21.3751399 30.3689979,20.7585745 C28.6488486,20.1420092 26.725622,20.6739431 25.5701056,22.0858718 C25.3585859,21.5062343 25.080033,20.9531384 24.7400812,20.437772 L24.5058002,20.0841311 C25.6921058,18.974285 27.256573,18.3543025 28.8835093,18.3492892 L28.8835093,18.3492892 C29.0709342,18.3492892 29.2583591,18.3492892 29.4457839,18.3492892 L29.5863526,18.3492892 L30.1352396,18.4360313 L30.2490333,18.4360313 L30.6975142,18.5494633 L30.8313891,18.5894981 C30.9987327,18.6428779 31.1593826,18.7029301 31.3200325,18.7696548 L31.4739886,18.8363795 C31.6011698,18.8897592 31.7283509,18.9564839 31.8555321,19.0232086 L31.989407,19.0966057 C32.1278556,19.1688192 32.2619585,19.2490252 32.3910317,19.3368146 L32.565069,19.4502466 L32.8997563,19.7038004 L33.1005686,19.8706121 L33.328156,20.0774587 L33.5021933,20.2509428 C33.6025995,20.3510299 33.6963119,20.4644619 33.7967181,20.5712214 C33.8971243,20.6779809 33.903818,20.7113432 33.9640617,20.7780679 L34.1113241,20.9782419 L34.2585865,21.191761 L34.2585865,21.191761 C34.9896643,22.2642511 35.3792472,23.5316032 35.3764419,24.8282565 L35.3764419,24.8282565 Z" id="holmusk_master_logo"></path>
                <path d="M89.496,14 L89.496,38 L84.536,38 L84.536,28.208 L74.424,28.208 L74.424,38 L69.432,38 L69.432,14 L74.424,14 L74.424,23.76 L84.536,23.76 L84.536,14 L89.496,14 Z M100.072,38.32 C98.4506586,38.32 96.9680067,37.9520037 95.624,37.216 C94.2799933,36.4799963 93.2133373,35.4720064 92.424,34.192 C91.6346627,32.9119936 91.24,31.5146742 91.24,30 C91.24,28.4853258 91.6346627,27.0880064 92.424,25.808 C93.2133373,24.5279936 94.2799933,23.5200037 95.624,22.784 C96.9680067,22.0479963 98.4506586,21.68 100.072,21.68 C101.693341,21.68 103.181327,22.0479963 104.536,22.784 C105.890673,23.5200037 106.957329,24.5279936 107.736,25.808 C108.514671,27.0880064 108.904,28.4853258 108.904,30 C108.904,31.5146742 108.514671,32.9119936 107.736,34.192 C106.957329,35.4720064 105.890673,36.4799963 104.536,37.216 C103.181327,37.9520037 101.693341,38.32 100.072,38.32 Z M100.072,34 C101.181339,34 102.130663,33.6106706 102.92,32.832 C103.709337,32.0533294 104.104,31.1093389 104.104,30 C104.104,29.274663 103.922668,28.6026698 103.56,27.984 C103.197332,27.3653302 102.70667,26.8746685 102.088,26.512 C101.46933,26.1493315 100.797337,25.968 100.072,25.968 C98.9626611,25.968 98.0186706,26.3573294 97.24,27.136 C96.4613294,27.9146706 96.072,28.8693277 96.072,30 C96.072,31.1093389 96.4613294,32.0533294 97.24,32.832 C98.0186706,33.6106706 98.9626611,34 100.072,34 Z M110.648,12.4 L115.48,12.4 L115.48,38 L110.648,38 L110.648,12.4 Z M136.584,21.68 C137.714672,21.68 138.733329,21.9519973 139.64,22.496 C140.546671,23.0400027 141.255997,23.7813286 141.768,24.72 C142.280003,25.6586714 142.536,26.7039942 142.536,27.856 L142.536,38 L137.704,38 L137.704,28.368 C137.704,27.6639965 137.480002,27.0880022 137.032,26.64 C136.583998,26.1919978 135.997337,25.968 135.272,25.968 C134.482663,25.968 133.880002,26.2186642 133.464,26.72 C133.047998,27.2213358 132.84,27.8559962 132.84,28.624 L132.84,38 L128.04,38 L128.04,28.368 C128.04,27.6639965 127.810669,27.0880022 127.352,26.64 C126.893331,26.1919978 126.301337,25.968 125.576,25.968 C124.807996,25.968 124.216002,26.2186642 123.8,26.72 C123.383998,27.2213358 123.176,27.8559962 123.176,28.624 L123.176,38 L118.344,38 L118.344,22 L123.176,22 L123.176,23.664 C123.666669,23.0453302 124.25333,22.5600018 124.936,22.208 C125.61867,21.8559982 126.354663,21.68 127.144,21.68 C128.082671,21.68 128.962663,21.909331 129.784,22.368 C130.605337,22.826669 131.271997,23.4613293 131.784,24.272 C132.317336,23.4613293 132.994663,22.826669 133.816,22.368 C134.637337,21.909331 135.559995,21.68 136.584,21.68 Z M151.992,38.32 C149.645322,38.32 147.832006,37.7440058 146.552,36.592 C145.271994,35.4399942 144.632,33.8720099 144.632,31.888 L144.632,22 L149.464,22 L149.464,31.312 C149.464,32.1013373 149.698664,32.7466642 150.168,33.248 C150.637336,33.7493358 151.24533,34 151.992,34 C152.717337,34 153.319998,33.7493358 153.8,33.248 C154.280002,32.7466642 154.52,32.1013373 154.52,31.312 L154.52,22 L159.352,22 L159.352,31.888 C159.352,33.8720099 158.706673,35.4399942 157.416,36.592 C156.125327,37.7440058 154.317345,38.32 151.992,38.32 Z M167.208,38.32 C165.90666,38.32 164.632006,38.1333352 163.384,37.76 C162.135994,37.3866648 161.064004,36.8480035 160.168,36.144 L162.728,32.912 C163.304003,33.4240026 163.94933,33.8293318 164.664,34.128 C165.37867,34.4266682 166.07733,34.576 166.76,34.576 C167.314669,34.576 167.751998,34.480001 168.072,34.288 C168.392002,34.095999 168.552,33.8080019 168.552,33.424 C168.552,33.0186646 168.354669,32.7040011 167.96,32.48 C167.565331,32.2559989 166.898671,31.9946682 165.96,31.696 L164.808,31.312 C163.57066,30.8639978 162.589337,30.2880035 161.864,29.584 C161.138663,28.8799965 160.776,27.9413392 160.776,26.768 C160.776,25.7866618 161.042664,24.9066706 161.576,24.128 C162.109336,23.3493294 162.871995,22.7466688 163.864,22.32 C164.856005,21.8933312 166.00266,21.68 167.304,21.68 C168.221338,21.68 169.218661,21.8399984 170.296,22.16 C171.373339,22.4800016 172.349329,22.9813299 173.224,23.664 L170.696,26.576 C170.269331,26.1706646 169.73067,25.834668 169.08,25.568 C168.42933,25.301332 167.79467,25.168 167.176,25.168 C166.685331,25.168 166.296001,25.2586658 166.008,25.44 C165.719999,25.6213342 165.576,25.8933315 165.576,26.256 C165.576,26.6400019 165.773331,26.9386656 166.168,27.152 C166.562669,27.3653344 167.218662,27.6213318 168.136,27.92 L168.84,28.144 C170.162673,28.5920022 171.261329,29.1946629 172.136,29.952 C173.010671,30.7093371 173.448,31.7386602 173.448,33.04 C173.448,34.5973411 172.909339,35.8666618 171.832,36.848 C170.754661,37.8293382 169.213343,38.32 167.208,38.32 Z M185.336,38 L179.672,30.768 L179.672,38 L174.84,38 L174.84,12.4 L179.672,12.4 L179.672,27.664 L185.208,22 L191.032,22 L183.992,29.232 L191.608,38 L185.336,38 Z M212.184,17.808 L212.92,17.84 L211.288,22.832 L210.36,22.832 C210.84,20.464 210.84,19.12 209.624,19.12 L206.904,19.12 L204.568,36.016 C204.44,36.816 204.952,36.976 206.52,37.136 L206.424,38 C204.088,37.904 201.528,37.904 199.096,38 L199.16,37.136 C200.792,36.976 201.432,36.688 201.528,35.888 L203.896,19.12 L201.464,19.12 C200.28,19.12 199.928,20.304 198.392,22.832 L197.432,22.832 L199.128,17.84 L199.864,17.872 C200.568,18.096 201.016,18.128 202.424,18.128 L209.496,18.128 C210.936,18.128 211.416,18.032 212.184,17.808 Z M221.896,33.36 C222.248,33.36 222.216,33.744 221.96,34.16 C220.616,36.496 218.632,38.224 215.88,38.224 C213.288,38.224 211.048,36.688 211.048,32.72 C211.048,27.472 215.272,21.712 219.528,21.712 C221.576,21.712 222.664,22.992 222.664,24.56 C222.664,28.24 216.808,30.832 214.12,31.856 C213.864,34.256 214.984,36.432 217.16,36.432 C218.792,36.432 220.104,35.216 221.16,33.68 C221.352,33.424 221.448,33.36 221.672,33.36 L221.896,33.36 Z M220.2,24.528 C220.2,23.664 219.976,22.576 218.952,22.576 C217.064,22.576 214.632,26.672 214.248,30.928 C219.112,29.104 220.2,26.352 220.2,24.528 Z M230.552,21.712 C232.76,21.712 234.008,23.152 234.008,24.752 C234.008,25.936 233.368,26.704 232.472,26.704 C231.768,26.704 231.256,26.224 231.256,25.552 C231.256,24.304 232.152,22.512 230.2,22.512 C227.064,22.512 224.984,27.664 224.984,31.76 C224.984,34.736 226.136,36.432 227.992,36.432 C229.592,36.432 231.032,35.216 232.12,33.68 C232.312,33.424 232.408,33.36 232.632,33.36 L232.888,33.36 C233.24,33.36 233.208,33.744 232.984,34.096 C231.512,36.464 229.464,38.224 226.712,38.224 C224.12,38.224 221.976,36.688 221.976,32.72 C221.976,27.152 226.136,21.712 230.552,21.712 Z M244.04,21.712 C245.64,21.712 247.24,22.384 247.24,26 C247.24,30.288 245,38.256 240.52,38.256 C239.176,38.256 238.472,37.488 238.472,36.656 C238.472,35.856 239.048,35.312 239.784,35.312 C241.352,35.312 240.84,37.264 241.704,37.264 C243.016,37.264 244.264,29.328 244.264,25.872 C244.264,23.728 243.72,22.992 242.792,22.992 C240.232,22.992 236.936,28.656 235.592,37.52 C235.496,38.064 234.856,38.288 234.12,38.288 C233.448,38.288 232.712,38.064 232.808,37.424 L235.72,19.632 C235.912,18.512 235.112,17.968 234.12,18.096 L234.248,17.232 C236.68,16.784 237.544,16.112 238.248,16.112 C238.728,16.112 239.048,16.368 238.952,16.912 L236.776,29.904 C238.472,24.912 240.776,21.712 244.04,21.712 Z M262.824,27.056 C265.96,27.472 267.752,29.232 267.752,31.76 C267.752,35.984 263.816,38 258.984,38 L250.536,38 L250.632,37.136 C252.264,37.008 252.808,36.72 252.936,35.92 L255.08,20.656 C255.24,19.536 254.536,19.12 253.32,18.992 L253.384,18.128 C254.28,18.16 255.112,18.192 255.912,18.192 C257.512,18.192 258.888,18.128 260.104,18.128 C265.576,18.128 266.984,20.272 266.984,22.32 C266.984,24.272 266.088,25.744 262.824,27.056 Z M258.344,19.152 L257.128,27.408 L258.792,27.152 C262.056,26.64 263.944,25.328 263.944,22.096 C263.944,20.496 263.016,19.12 260.456,19.12 C259.336,19.12 258.888,19.12 258.344,19.152 Z M258.92,36.976 C262.568,36.976 264.584,34.864 264.584,31.568 C264.584,29.392 263.24,27.76 260.744,27.76 L257.032,28.336 L255.944,36.048 C255.816,37.04 256.136,36.976 258.92,36.976 Z M270.776,19.632 C271,18.32 270.168,17.968 269.016,18.096 L269.144,17.232 C271.736,16.816 272.6,16.112 273.304,16.112 C273.784,16.112 274.104,16.368 274.008,16.912 L271.096,35.184 C271,35.824 271.192,36.112 271.672,36.112 C272.248,36.112 272.952,35.504 273.432,35.024 C273.624,34.832 273.72,34.832 273.912,34.992 C274.072,35.152 274.072,35.312 273.88,35.632 C272.632,37.424 270.84,38.224 269.592,38.224 C268.216,38.224 267.96,37.136 268.12,36.272 L270.776,19.632 Z M281.736,21.712 C284.872,21.712 287.176,23.76 287.176,27.952 C287.176,33.104 283.528,38.224 279.112,38.224 C276.2,38.224 273.576,36.08 273.576,31.792 C273.576,26.64 277.48,21.712 281.736,21.712 Z M284.104,27.44 C284.104,24.112 283.08,22.544 281.448,22.544 C278.344,22.544 276.648,28.016 276.648,32.4 C276.648,35.632 277.672,37.36 279.4,37.36 C282.408,37.36 284.104,31.696 284.104,27.44 Z M301.368,21.744 C302.168,21.744 302.84,22.224 302.84,22.992 C302.84,23.664 302.36,24.24 301.464,24.24 C300.984,24.24 300.76,24.08 300.376,24.08 C299.896,24.08 299.768,24.368 299.768,24.624 C299.768,25.2 299.992,25.776 299.992,26.736 C299.992,29.712 297.688,32.592 292.024,33.072 C289.176,33.328 288.696,33.52 288.696,34.064 C288.696,34.608 289.336,34.704 290.296,34.864 L294.776,35.536 C297.816,36.016 299.768,36.944 299.768,39.248 C299.768,42.896 295.16,44.944 290.936,44.944 C287.64,44.944 284.952,43.728 284.952,40.88 C284.952,39.312 285.816,38 287.032,38 C287.768,38 288.28,38.448 288.28,39.056 C288.28,40.08 287.608,40.176 287.608,41.552 C287.608,43.248 289.08,44.08 291.352,44.08 C294.072,44.08 297.144,42.928 297.144,40.208 C297.144,38.672 296.184,38.32 294.584,38.032 L288.856,37.008 C287,36.656 286.52,35.76 286.52,34.832 C286.52,33.136 288.28,32.656 290.52,32.4 C288.728,31.28 287.736,29.68 287.736,27.792 C287.736,24.464 290.744,21.712 294.584,21.712 C297.112,21.712 298.36,22.896 299.128,23.792 C299.576,22.544 300.28,21.744 301.368,21.744 Z M293.176,32.144 C295.608,32.144 297.144,29.008 297.144,26.128 C297.144,24.24 296.472,22.48 294.616,22.48 C292.12,22.48 290.616,25.744 290.616,28.56 C290.616,30.576 291.416,32.144 293.176,32.144 Z" id="HolmuskTechBlog" fill-rule="nonzero"></path>
            </g>
        </g>
    </g>
</svg>