<?xml version="1.0" encoding="UTF-8"?>
<svg width="340px" height="46px" viewBox="0 0 340 46" version="1.1" xmlns="http://www.w3.org/2000/svg" xmlns:xlink="http://www.w3.org/1999/xlink">
    <!-- Generator: Sketch 63.1 (92452) - https://sketch.com -->
    <title>Group</title>
    <desc>Created with Sketch.</desc>
    <g id="Page-1" stroke="none" stroke-width="1" fill="none" fill-rule="evenodd">
        <g id="Artboard" transform="translate(-241.000000, -47.000000)" fill="#192D5B">
            <g id="Group" transform="translate(241.000000, 47.000000)">
                <path d="M7.81597009e-14,1.70530257e-13 L7.81597009e-14,46 L46.1466775,46 L46.1466775,1.70530257e-13 L7.81597009e-14,1.70530257e-13 Z M23.7159418,34.229765 L21.5605524,34.229765 L21.5605524,25.1018277 C21.5605524,23.5642486 20.7376482,22.1434669 19.4018197,21.3746773 C18.0659912,20.6058878 16.4201826,20.6058878 15.0843541,21.3746773 C13.7485257,22.1434669 12.9256214,23.5642486 12.9256214,25.1018277 L12.9256214,34.229765 L10.7702356,34.229765 L10.7702356,11.4833188 L12.9390089,11.4833188 L12.9390089,20.2776327 C14.1177602,19.2123701 15.6520221,18.6224983 17.2430869,18.6228605 C20.8238039,18.6338978 23.7196469,21.5324769 23.7159418,25.1018277 L23.7159418,34.229765 Z M35.376457,24.8282565 L35.376457,33.9561938 L33.2210561,33.9561938 L33.2210561,24.8282565 L33.2210561,24.8282565 C33.2321514,23.0061247 32.0891471,21.3751399 30.3689979,20.7585745 C28.6488486,20.1420092 26.725622,20.6739431 25.5701056,22.0858718 C25.3585859,21.5062343 25.080033,20.9531384 24.7400812,20.437772 L24.5058002,20.0841311 C25.6921058,18.974285 27.256573,18.3543025 28.8835093,18.3492892 L28.8835093,18.3492892 C29.0709342,18.3492892 29.2583591,18.3492892 29.4457839,18.3492892 L29.5863526,18.3492892 L30.1352396,18.4360313 L30.2490333,18.4360313 L30.6975142,18.5494633 L30.8313891,18.5894981 C30.9987327,18.6428779 31.1593826,18.7029301 31.3200325,18.7696548 L31.4739886,18.8363795 C31.6011698,18.8897592 31.7283509,18.9564839 31.8555321,19.0232086 L31.989407,19.0966057 C32.1278556,19.1688192 32.2619585,19.2490252 32.3910317,19.3368146 L32.565069,19.4502466 L32.8997563,19.7038004 L33.1005686,19.8706121 L33.328156,20.0774587 L33.5021933,20.2509428 C33.6025995,20.3510299 33.6963119,20.4644619 33.7967181,20.5712214 C33.8971243,20.6779809 33.903818,20.7113432 33.9640617,20.7780679 L34.1113241,20.9782419 L34.2585865,21.191761 L34.2585865,21.191761 C34.9896643,22.2642511 35.3792472,23.5316032 35.376457,24.8282565 L35.376457,24.8282565 Z" id="holmusk_master_logo"></path>
                <text id="Holmusk-Product-Blog" font-family="NeueEinstellung-Bold, Neue Einstellung" font-size="32" font-weight="bold" letter-spacing="-2">
                    <tspan x="67" y="38">Holmusk </tspan>
                    <tspan x="195.64" y="38" font-family="ArgentCF-LightItalic, Argent CF" font-style="italic" font-weight="300">Product Blo</tspan>
                    <tspan x="323.4" y="38" font-family="ArgentCF-LightItalic, Argent CF" font-style="italic" font-weight="300">g</tspan>
                </text>
            </g>
        </g>
    </g>
</svg>