<?xml version="1.0" encoding="UTF-8"?>
<svg width="600px" height="302px" viewBox="0 0 600 302" version="1.1" xmlns="http://www.w3.org/2000/svg" xmlns:xlink="http://www.w3.org/1999/xlink">
    <!-- Generator: Sketch 54.1 (76490) - https://sketchapp.com -->
    <title>illust_data_analytics</title>
    <desc>Created with Sketch.</desc>
    <g id="Page-1" stroke="none" stroke-width="1" fill="none" fill-rule="evenodd">
        <g id="01_holmusk_tech_blog_home" transform="translate(-645.000000, -158.000000)">
            <g id="hero-banner" transform="translate(1.000000, -0.000000)">
                <g id="illust_data_analytics" transform="translate(644.000000, 158.000000)">
                    <path d="M510.060032,20.1986265 C552.104958,35.9870619 568.94175,102.857486 554.757095,155.689005 C540.57244,208.422379 495.263674,247.104045 453.321411,277.848823 C411.276485,308.491189 372.499676,331.290543 333.722867,331.392954 C294.843395,331.597777 255.869814,308.998979 222.692436,278.254202 C189.527891,247.616103 162.176659,208.729613 152.380863,159.964684 C142.482403,111.319234 150.135102,52.7740091 183.303924,36.994108 C216.472747,21.2142069 275.144861,48.1910957 338.009062,44.0178282 C400.97165,39.7421492 468.019383,4.41872545 510.060032,20.1986265 Z" id="Path" fill="#192D5B" fill-rule="nonzero"></path>
                    <path d="M211.810478,78.0269155 C230.16822,86.3006689 240.991835,109.785662 241.458703,131.780697 C241.92557,153.775732 232.074239,174.38327 229.804149,196.672881 C227.53406,218.962492 232.900894,242.925638 224.544395,258.341801 C216.187896,273.757964 194.227993,280.597259 172.16101,286.915708 C150.094027,293.234157 127.975646,298.942108 104.914964,297.093535 C81.8542817,295.244961 57.9540947,285.801441 40.7185476,268.895319 C23.4830006,251.989198 12.8392793,227.680244 8.2005871,201.924025 C3.56189489,176.167805 4.79545293,148.947241 20.9345039,134.658153 C37.073555,120.369065 68.165214,119.037068 90.7504624,112.714349 C113.335711,106.39163 127.461664,95.0354983 147.468433,85.8865543 C167.475203,76.7376103 193.457019,69.8001236 211.810478,78.0269155 Z" id="Path" fill="#E6E6E6" fill-rule="nonzero" opacity="0.45156715"></path>
                    <path d="M55.9080132,185.411444 C45.1370657,162.760017 53.8839138,131.61004 71.313421,110.203759 C88.7429281,88.7974781 114.808022,76.9941742 135.074692,57.4897261 C155.341362,37.9852781 169.664111,10.7754218 190.136187,2.7374059 C210.608262,-5.30060996 237.079887,5.79910107 263.247684,17.4659506 C289.415481,29.1328002 315.103998,41.4435438 335.567515,61.7155477 C356.031031,81.9875517 371.136889,110.237873 373.819998,140.232251 C376.503106,170.22663 366.943195,202.063142 350.467967,230.390219 C333.99274,258.717296 310.679223,283.790788 283.711201,284.498645 C256.743179,285.206502 226.039345,261.518875 199.409386,249.434134 C172.779427,237.349392 150.090685,236.867538 123.606222,229.550172 C97.1217582,222.232806 66.7174743,208.007436 55.9080132,185.411444 Z" id="Path" fill="#F2F2F2" fill-rule="nonzero" opacity="0.339773996"></path>
                    <rect id="Rectangle" fill="#3360CC" fill-rule="nonzero" x="81.1508728" y="59.8126362" width="412.955466" height="248.949891" rx="13.6655376"></rect>
                    <path d="M485.366922,59.8126362 L366.270958,59.8126362 L298.154921,308.762527 L485.366922,308.762527 C487.68476,308.762527 489.907664,307.845381 491.546623,306.212851 C493.185581,304.580321 494.106338,302.366135 494.106338,300.057389 L494.106338,68.5177746 C494.106338,66.2090284 493.185581,63.9948423 491.546623,62.3623122 C489.907664,60.729782 487.68476,59.8126362 485.366922,59.8126362 Z" id="Path" fill="#E1E4EA" fill-rule="nonzero" style="mix-blend-mode: multiply;"></path>
                    <rect id="Rectangle" fill="#C7D0DD" fill-rule="nonzero" style="mix-blend-mode: multiply;" x="134.592168" y="129.324619" width="229.149798" height="142.257081" rx="7.24139519"></rect>
                    <rect id="Rectangle" fill="#FFFFFF" fill-rule="nonzero" x="134.592168" y="126.899782" width="229.149798" height="142.257081" rx="7.24139519"></rect>
                    <g id="Group" opacity="0.2" transform="translate(134.592168, 144.681917)" stroke="#192D5B" stroke-width="1.36655376">
                        <path d="M0.0982375647,105.137212 L228.675695,105.137212" id="Path"></path>
                        <path d="M0.0982375647,79.0023728 L228.675695,79.0023728" id="Path"></path>
                        <path d="M0.0982375647,52.8718042 L228.675695,52.8718042" id="Path" stroke-dasharray="8.199322932475322"></path>
                        <path d="M0.0982375647,26.7369652 L228.675695,26.7369652" id="Path"></path>
                        <path d="M0.0982375647,0.602126193 L228.675695,0.602126193" id="Path"></path>
                    </g>
                    <path d="M485.388608,59.8126362 L89.8686031,59.8126362 C87.5565173,59.8126362 85.3391285,60.7382545 83.7042369,62.3858656 C82.0693454,64.0334767 81.1508728,66.2681169 81.1508728,68.5981909 L81.1508728,77.5947712 L494.106338,77.5947712 L494.106338,68.5981909 C494.106338,66.2681169 493.187866,64.0334767 491.552974,62.3858656 C489.918083,60.7382545 487.700694,59.8126362 485.388608,59.8126362 Z" id="Path" fill="#CCDEFF" fill-rule="nonzero"></path>
                    <ellipse id="Oval" fill="#FF1D25" fill-rule="nonzero" cx="91.2723303" cy="69.916122" rx="3.6437247" ry="3.6372549"></ellipse>
                    <ellipse id="Oval" fill="#FF931E" fill-rule="nonzero" cx="101.798646" cy="69.916122" rx="3.6437247" ry="3.6372549"></ellipse>
                    <ellipse id="Oval" fill="#39B54A" fill-rule="nonzero" cx="112.324962" cy="69.916122" rx="3.6437247" ry="3.6372549"></ellipse>
                    <rect id="Rectangle" fill="#E6E6E6" fill-rule="nonzero" style="mix-blend-mode: multiply;" x="96.5354882" y="90.5272331" width="72.8744939" height="17.7821351" rx="7.02033502"></rect>
                    <rect id="Rectangle" fill="#E6E6E6" fill-rule="nonzero" style="mix-blend-mode: multiply;" x="175.077998" y="90.5272331" width="72.8744939" height="17.7821351" rx="7.02033502"></rect>
                    <rect id="Rectangle" fill="#E6E6E6" fill-rule="nonzero" style="mix-blend-mode: multiply;" x="253.620508" y="90.5272331" width="72.8744939" height="17.7821351" rx="7.02033502"></rect>
                    <ellipse id="Oval" fill="#3360CC" fill-rule="nonzero" opacity="0.2" cx="302.203504" cy="202.069717" rx="9.71659919" ry="9.69934641"></ellipse>
                    <rect id="Rectangle" fill="#C7D0DD" fill-rule="nonzero" style="mix-blend-mode: multiply;" x="436.61646" y="172.971678" width="116.59919" height="147.915033" rx="13.6655376"></rect>
                    <rect id="Rectangle" fill="#E6F0FF" fill-rule="nonzero" x="437.426176" y="171.35512" width="114.17004" height="145.490196" rx="11.615707"></rect>
                    <path d="M445.317892,170.546841 L445.317892,173.157106 L544.514218,173.157106 C547.876238,173.161805 550.600522,175.885917 550.605221,179.247725 L550.605221,309.760989 C550.600522,313.122797 547.876238,315.84691 544.514218,315.851608 L445.317892,315.851608 C441.955872,315.84691 439.231588,313.122797 439.22689,309.760989 L439.22689,179.247725 C439.231588,175.885917 441.955872,173.161805 445.317892,173.157106 L445.317892,170.546841 L445.317892,170.546841 Z M445.317892,170.546841 C440.512224,170.546841 436.61646,174.44236 436.61646,179.247725 L436.61646,309.760989 C436.61646,314.566355 440.512224,318.461874 445.317892,318.461874 L544.514218,318.461874 C546.821981,318.461874 549.035225,317.545176 550.66706,315.913444 C552.298895,314.281711 553.21565,312.068607 553.21565,309.760989 L553.21565,179.247725 C553.21565,176.940107 552.298895,174.727003 550.66706,173.095271 C549.035225,171.463539 546.821981,170.546841 544.514218,170.546841 L445.317892,170.546841 Z" id="Shape" fill="#FFFFFF" fill-rule="nonzero"></path>
                    <rect id="Rectangle" fill="#899FCC" fill-rule="nonzero" x="477.10229" y="165.697168" width="34.8178138" height="9.69934641" rx="4.8496732"></rect>
                    <rect id="Rectangle" fill="#192D5B" fill-rule="nonzero" opacity="0.7" x="450.381642" y="215.810458" width="11.3360324" height="52.5381264"></rect>
                    <rect id="Rectangle" fill="#192D5B" fill-rule="nonzero" opacity="0.5" x="465.766257" y="224.701525" width="11.3360324" height="42.83878"></rect>
                    <rect id="Rectangle" fill="#192D5B" fill-rule="nonzero" x="481.960589" y="202.877996" width="11.3360324" height="64.6623094"></rect>
                    <rect id="Rectangle" fill="#192D5B" fill-rule="nonzero" opacity="0.8" x="497.345205" y="248.141612" width="11.3360324" height="19.3986928"></rect>
                    <rect id="Rectangle" fill="#192D5B" fill-rule="nonzero" x="512.72982" y="234.400871" width="11.3360324" height="33.1394336"></rect>
                    <rect id="Rectangle" fill="#192D5B" fill-rule="nonzero" opacity="0.8" x="528.114436" y="238.442266" width="11.3360324" height="29.0980392"></rect>
                    <polygon id="Path" fill="#192D5B" fill-rule="nonzero" points="539.450468 190.127072 532.790874 190.127072 532.790874 183.479303 526.676864 183.479303 526.676864 190.127072 520.01727 190.127072 520.01727 196.230226 526.676864 196.230226 526.676864 202.877996 532.790874 202.877996 532.790874 196.230226 539.450468 196.230226"></polygon>
                    <path d="M104.21984,105.404576 C110.036979,110.398217 115.26773,116.783459 115.157251,123.054149 C115.046772,129.324839 109.488833,135.425822 103.684442,140.139446 C97.8800502,144.85307 91.722976,148.162365 83.2076021,150.546754 C74.6922283,152.931144 63.8058072,154.365172 58.4390821,149.651548 C53.0723569,144.937923 53.2678196,134.068162 53.99868,123.911172 C54.7295405,113.754182 55.9873003,104.309963 61.3370287,99.333292 C66.686757,94.3566213 76.1496999,93.7923441 84.0659382,95.3112256 C91.9821765,96.8301072 98.3899528,100.423662 104.21984,105.404576 Z" id="Path" fill="#B3B3B3" fill-rule="nonzero"></path>
                    <path d="M104.21984,102.979474 C110.036979,107.977484 115.26773,114.362889 115.157251,120.629495 C115.046772,126.896101 109.488833,133.005724 103.684442,137.719468 C97.8800502,142.433211 91.722976,145.74259 83.2076021,148.122798 C74.6922283,150.503005 63.8058072,151.941312 58.4390821,147.231811 C53.0723569,142.52231 53.2678196,131.64803 53.99868,121.490782 C54.7295405,111.333534 55.9873003,101.889076 61.3370287,96.9080359 C66.686757,91.9269963 76.1496999,91.3669475 84.0659382,92.8901104 C91.9821765,94.4132733 98.3899528,98.0026767 104.21984,102.979474 Z" id="Path" fill="#8CC63F" fill-rule="nonzero"></path>
                    <path d="M76.2833559,129.324619 L76.1885085,129.379715 C75.218549,129.930846 74.6300496,131.030491 74.6756069,132.206659 C74.7211641,133.382826 75.3926759,134.426342 76.401915,134.889307 C76.5407617,134.951853 76.6899886,134.983572 76.840584,134.982547 L76.8919597,134.982547 C77.4198265,134.964121 77.8642958,134.553513 77.9594433,133.996389 C78.0545908,133.439264 77.7746702,132.886377 77.2871569,132.668518 C77.1394534,132.602401 77.0229566,132.475043 76.9641562,132.315401 C76.9053558,132.15576 76.9092492,131.977404 76.9749511,131.820888 C77.0265018,131.68513 77.1218934,131.573804 77.2436852,131.507265 L77.2436852,131.507265 L78.7217231,130.659635 L76.2833559,129.324619 Z" id="Path" fill="#FFFFFF" fill-rule="nonzero"></path>
                    <path d="M86.0105989,129.301956 L83.7515365,128.084375 L85.9305202,126.922528 L86.0148136,126.875368 C87.0487769,126.322589 87.6762729,125.212476 87.6257701,124.0254 C87.5752672,122.838325 86.8558366,121.787507 85.7787921,121.327658 C85.6310687,121.269174 85.4736856,121.240066 85.3151786,121.241913 L85.2603879,121.241913 C84.699167,121.26519 84.2287368,121.680986 84.1277259,122.243032 C84.0267149,122.805078 84.3220966,123.363288 84.838921,123.587042 C84.995662,123.654867 85.1191333,123.783775 85.1817101,123.944926 C85.2442869,124.106077 85.2407461,124.286019 85.1718798,124.444494 C85.1141905,124.580055 85.0132076,124.691841 84.8852824,124.761751 L81.1468712,126.74675 L77.4126746,124.748889 C77.109548,124.583994 76.993084,124.201833 77.1513652,123.891437 C77.219535,123.762424 77.327697,123.659935 77.459036,123.599904 C77.9613969,123.368133 78.2439995,122.818104 78.1442704,122.266234 C78.0445413,121.714363 77.5881184,121.302524 77.0375691,121.267636 L76.9869931,121.267636 C76.8260599,121.267594 76.6668311,121.301156 76.5191649,121.366243 C75.4423873,121.833688 74.7253558,122.888787 74.675869,124.078619 C74.6263822,125.268452 75.2532422,126.381387 76.2873581,126.939677 L80.1227067,128.963262 L84.876853,131.509893 C85.1762604,131.677891 85.2916511,132.05653 85.1381625,132.367344 C85.0694368,132.497473 84.9595437,132.600195 84.826277,132.658878 C84.3329081,132.895365 84.0580937,133.44029 84.1570508,133.985875 C84.256008,134.53146 84.7038956,134.940748 85.2477439,134.982571 L85.3025346,134.982571 C85.4632206,134.980242 85.6219973,134.946776 85.7703628,134.883964 C86.8466882,134.415634 87.5628368,133.360027 87.6114223,132.170231 C87.6600079,130.980435 87.0323897,129.868048 85.9979549,129.31053 L86.0105989,129.301956 Z" id="Path" fill="#FFFFFF" fill-rule="nonzero"></path>
                    <path d="M88.4419104,109.117647 C87.3829337,109.118568 86.3365123,109.349217 85.3734791,109.793981 C86.2156511,111.602163 85.8196117,113.751489 84.3897392,115.132788 L84.3897392,119.182334 C84.6477123,119.100398 84.9150001,119.0521 85.1851034,119.038613 L85.3274317,119.038613 C85.7589125,119.034516 86.1865407,119.120878 86.5832699,119.292238 C87.2011904,119.558726 87.7604291,119.946695 88.2284179,120.433551 C89.5703548,120.342417 90.6131393,119.217384 90.6145104,117.859257 L90.6145104,116.768669 L90.6145104,116.768669 C91.2928609,116.768669 91.9434279,116.496559 92.4230941,116.0122 C92.9027604,115.527841 93.1722341,114.870908 93.1722341,114.185921 L93.1722341,113.095333 L93.1722341,113.095333 C94.5825139,113.095333 95.7257716,111.94089 95.7257716,110.516812 L95.7257716,109.117647 L88.4419104,109.117647 Z" id="Path" fill="#FFFFFF" fill-rule="nonzero"></path>
                    <path d="M76.5237502,119.071921 C76.7200857,119.040881 76.91912,119.030959 77.1175224,119.042321 C77.3874759,119.054472 77.6546386,119.102819 77.9120065,119.186095 L77.9120065,115.135036 C76.4894554,113.749183 76.1006809,111.599568 76.9460812,109.794233 C75.9826657,109.349214 74.9360226,109.11849 73.876864,109.117647 L66.5759741,109.117647 L66.5759741,110.517335 C66.5759741,111.941945 67.7179666,113.09682 69.1266859,113.09682 L69.1475934,113.09682 L69.1475934,114.187815 C69.1475915,115.613111 70.2889098,116.769196 71.6983052,116.771528 L71.6983052,116.771528 L71.6983052,117.862524 C71.697611,119.219649 72.7384858,120.344413 74.0775757,120.433551 C74.5183425,119.977457 75.038601,119.607591 75.6121843,119.342556 C75.9017606,119.208947 76.2087106,119.117817 76.5237502,119.071921 L76.5237502,119.071921 Z" id="Path" fill="#FFFFFF" fill-rule="nonzero"></path>
                    <path d="M79.460189,114.127958 L79.460189,123.598553 L81.1605814,124.412135 C81.3454816,124.501589 81.5665936,124.495135 81.7451935,124.395071 C81.9237934,124.295008 82.0345052,124.115552 82.0379115,123.920596 L82.0379115,114.127958 C82.9839147,113.674706 83.5794103,112.763288 83.5800226,111.767724 C83.5621845,110.343037 82.3587032,109.180022 80.8394966,109.119347 C79.5136936,109.075045 78.3334238,109.900698 78.0019571,111.104336 C77.6704903,112.307975 78.2770393,113.565645 79.460189,114.127958 L79.460189,114.127958 Z" id="Path" fill="#FFFFFF" fill-rule="nonzero"></path>
                    <path d="M79.5314397,136.18696 C79.5314396,136.622984 79.7629363,137.025886 80.1387271,137.243898 C80.5145179,137.46191 80.9775112,137.46191 81.353302,137.243898 C81.7290928,137.025886 81.9605895,136.622984 81.9605894,136.18696 L81.9605894,132.225858 L79.5314397,130.941176 L79.5314397,136.18696 Z" id="Path" fill="#FFFFFF" fill-rule="nonzero"></path>
                    <path d="M305.601269,201.716762 C304.695429,200.853779 303.479542,200.38616 302.224387,200.418044 C300.969232,200.449928 299.779035,200.978666 298.918851,201.88651 C298.161186,202.674562 297.70712,203.702161 297.636238,204.789202 C291.894404,205.103235 286.263729,201.903485 282.826325,198.716465 C278.841671,195.024445 275.823254,190.275743 272.907445,185.679815 L272.655198,185.280907 C271.765919,183.893217 270.850988,182.454602 269.918955,181.062668 C264.536253,173.046316 259.192029,167.678034 253.095339,164.176981 C250.952947,162.939337 248.673196,161.952451 246.301761,161.236096 C246.299649,161.200763 246.299649,161.165336 246.301761,161.130003 C246.247443,159.711906 245.633138,158.371973 244.59161,157.39979 C243.17397,156.117239 241.17834,155.675223 239.345872,156.237901 C237.513404,156.80058 236.117829,158.2839 235.677444,160.136977 C233.510574,160.335575 231.383823,160.842956 229.362709,161.643491 C223.103554,164.155762 218.558826,169.21001 214.441636,174.170897 C209.760096,179.836238 205.146962,185.904731 200.730496,192.206627 C199.922449,193.343939 199.067373,194.574613 198.122514,195.966547 C193.847135,202.259956 188.981754,209.393617 182.791005,214.876479 C174.847351,221.912536 165.232023,225.120774 157.070325,223.453 C147.211301,221.454216 139.814895,212.809797 134.470671,205.493656 C133.726755,204.504874 133.021317,203.511847 132.332981,202.523065 C127.010134,195.117806 121.503446,187.457926 113.354574,183.002039 C102.004799,176.91893 88.0709386,178.284026 78.1382763,186.452169 C73.6491283,190.224819 70.3912895,195.130538 67.2403351,199.879239 L66.9752616,200.282391 C65.9577214,201.827098 64.9017027,203.42273 63.8285826,204.950462 C58.3261697,212.720679 52.7382493,216.994086 46.7655447,218.004087 C44.3040874,218.331471 41.8142108,218.394075 39.3392113,218.19081 C37.4893389,218.064709 35.6338992,218.039209 33.7812185,218.114423 C26.8266292,218.574045 20.3108918,221.65068 15.5638283,226.716406 L16.6668761,229.551198 C20.9805826,224.425654 27.2139921,221.268438 33.9265814,220.809174 C35.6681761,220.743956 37.4120017,220.768036 39.1510946,220.881317 C41.8271225,221.102525 44.5194913,221.032797 47.1802565,220.673375 C53.9054278,219.527576 60.0747998,214.893454 66.0346782,206.507901 C67.0864214,205.026849 68.108237,203.477898 69.0958496,201.984115 L69.3566477,201.589451 C72.2767316,197.16327 75.585875,192.151459 79.8527033,188.535826 C88.5402736,181.253635 102.059022,179.9296 112.007829,185.387 C119.605178,189.55007 124.923749,196.955329 130.071306,204.110209 C130.45609,204.653403 130.845149,205.192353 131.238484,205.72706 C131.567689,206.181136 131.901168,206.635212 132.226097,207.093531 C137.890974,214.800093 145.766222,223.928294 156.484598,226.105313 C165.462894,227.938592 175.980326,224.49695 184.565287,216.900725 C190.892848,211.307527 195.681273,204.284201 200.341436,197.498523 C200.871583,196.751631 201.384629,196.008984 201.897674,195.262092 L202.945142,193.751335 C207.220521,187.631917 211.782351,181.622837 216.536572,175.898084 C220.418616,171.230012 224.68972,166.443117 230.371699,164.151519 C232.085259,163.466885 233.887049,163.024061 235.724473,162.835971 C236.001377,163.784004 236.535262,164.638349 237.267885,165.305805 C238.255195,166.236431 239.566065,166.753246 240.92761,166.748664 L241.162756,166.748664 C242.595571,166.69007 243.944783,166.063268 244.907988,165.008746 C245.219939,164.670353 245.487165,164.293874 245.703208,163.888409 C247.805036,164.534486 249.827132,165.412776 251.731493,166.506773 C257.45195,169.804129 262.513999,174.905057 267.653004,182.564938 C268.593588,183.96536 269.529896,185.429437 270.432001,186.846833 L270.568813,187.059018 C273.424766,191.570072 276.661228,196.683732 280.966535,200.689786 C284.92126,204.356344 291.488243,208.001683 298.234791,207.450002 C299.158184,209.042542 300.93289,209.953786 302.775928,209.781702 C304.618965,209.609618 306.19134,208.385858 306.799336,206.650333 C307.407332,204.914807 306.939119,202.986735 305.601269,201.716762 Z M243.574069,161.4016 C243.572863,161.756472 243.494094,162.106858 243.343199,162.428576 L243.193561,162.776559 C243.108985,162.908722 243.011614,163.032376 242.902835,163.145761 C242.220749,163.881835 241.180444,164.176109 240.209907,163.907518 C239.23937,163.638927 238.50253,162.852838 238.302527,161.872651 C238.268519,161.740821 238.24987,161.605552 238.246947,161.469499 C238.234916,161.256189 238.250723,161.04223 238.293976,160.832944 C238.537743,159.641127 239.566864,158.766559 240.790798,158.711094 L240.92761,158.711094 C242.247921,158.710246 243.371594,159.665228 243.574069,160.960255 L243.574069,161.4016 Z" id="Shape" fill="#E6E6E6" fill-rule="nonzero" style="mix-blend-mode: multiply;"></path>
                    <path d="M110.64311,289.659239 C107.843725,293.454813 107.195087,297.610644 108.56064,302.731451 C112.550618,294.900133 118.012832,289.144585 124.507747,284.289683 C119.514941,290.293979 113.438228,295.440519 110.152364,303.104575 C118.422499,302.710007 130.610065,286.682824 129.684049,278.083813 C125.177722,277.521983 115.06409,283.654943 110.64311,289.659239 Z" id="Path" fill="#8BA9ED" fill-rule="nonzero"></path>
                    <path d="M121.008375,298.488575 C116.339816,299.16954 112.947615,301.580069 110.30067,306.05438 C118.665529,303.422433 116.703878,302.971242 125.240059,303.664739 C117.4577,304.345703 118.905382,304.412546 111.16157,307.424664 C117.307792,312.880733 137.288368,310.278029 142.689334,303.714871 C139.892482,300.193075 128.383841,297.414908 121.008375,298.488575 Z" id="Path" fill="#8BA9ED" fill-rule="nonzero"></path>
                    <path d="M118.000328,266.450741 C116.47222,269.255439 116.38478,272.120453 117.696372,275.498153 C119.682496,269.858599 122.805332,265.498608 126.67765,261.668537 C123.887916,266.157777 120.311227,270.151563 118.766464,275.623094 C124.17938,274.653728 130.878906,262.77146 129.567314,257.032815 C126.565227,257.002657 120.419485,262.0132 118.000328,266.450741 Z" id="Path" fill="#8BA9ED" fill-rule="nonzero"></path>
                    <path d="M305.597602,198.897348 C304.691555,198.026546 303.475391,197.55469 302.21995,197.586862 C300.964508,197.619035 299.774039,198.152565 298.913659,199.068634 C298.155821,199.863827 297.701651,200.900738 297.630752,201.997628 C291.891883,202.314508 286.259923,199.085763 282.817457,195.869865 C278.831893,192.14439 275.817063,187.352659 272.896312,182.715085 L272.644007,182.312562 C271.758801,180.912298 270.839385,179.460647 269.911416,178.0561 C264.523208,169.96711 259.177763,164.550184 253.083957,161.017406 C250.939899,159.767901 248.658135,158.772047 246.284552,158.049873 C246.284552,158.015616 246.284552,157.977076 246.284552,157.942819 C246.228855,156.512197 245.614634,155.160616 244.574009,154.178805 C243.155182,152.885047 241.15879,152.439301 239.325483,153.006935 C237.492177,153.57457 236.095469,155.0709 235.653532,156.940795 C233.48079,157.136824 231.347692,157.645942 229.320249,158.452395 C223.059665,160.987431 218.518175,166.087478 214.400045,171.093317 C209.717436,176.809993 205.098972,182.933475 200.681496,189.292475 C199.873265,190.440092 199.017994,191.681917 198.077196,193.086464 C193.80084,199.4369 188.934348,206.635202 182.742185,212.167746 C174.79244,219.267559 165.174917,222.504868 157.011354,220.821981 C147.150078,218.805086 139.75626,210.082337 134.406539,202.699902 C133.662453,201.70216 132.956854,200.700135 132.268361,199.702393 C126.940022,192.230033 121.436353,184.500744 113.281343,180.004481 C101.930052,173.868198 87.9953384,175.2456 78.0612786,183.485873 C73.5711054,187.309837 70.3339042,192.281419 67.1651248,197.05174 L66.8957144,197.458544 C65.8779418,199.017249 64.8259583,200.627339 63.7483168,202.168915 C58.2489236,210.00954 52.6554506,214.32167 46.6813819,215.340823 C44.2207953,215.671164 41.7317681,215.734336 39.2576288,215.529238 C37.4073261,215.402182 35.551473,215.376451 33.6983666,215.452159 C26.3691903,215.943071 19.5438151,219.360387 14.7541117,224.937132 C15.101922,225.947721 15.4582849,226.94689 15.8232006,227.934641 C20.1379239,222.220904 26.7114114,218.657193 33.8480391,218.162763 C35.5886309,218.099095 37.3313221,218.123391 39.0694691,218.23556 C41.7461062,218.458841 44.4390974,218.388481 47.1004648,218.025734 C53.827172,216.869552 59.997953,212.193439 65.9591925,203.731901 C67.011176,202.237429 68.033225,200.674443 69.0210631,199.167124 L69.2819208,198.768884 C72.2026716,194.302596 75.5125708,189.245371 79.7803735,185.596975 C88.4699279,178.248797 102.017422,176.912765 111.942843,182.419616 C119.541927,186.62041 124.86599,194.092771 130.010445,201.312484 C130.395317,201.860599 130.788742,202.404433 131.17789,202.943985 C131.511446,203.402175 131.840725,203.860366 132.170005,204.322839 C137.8319,212.099232 145.708946,221.310147 156.42977,223.506892 C165.431498,225.356783 175.929951,221.883956 184.521149,214.218898 C190.850155,208.575018 195.639673,201.488052 200.300901,194.640886 C200.826893,193.887227 201.340055,193.13785 201.853218,192.384191 L202.900925,190.859744 C207.17728,184.684876 211.740152,178.621345 216.495459,172.844718 C220.382666,168.134348 224.650469,163.304077 230.333746,160.991713 C232.049658,160.30236 233.85306,159.855582 235.692019,159.664245 C235.965747,160.621293 236.498564,161.483848 237.231507,162.156459 C238.219043,163.095518 239.530212,163.617016 240.892067,163.612392 L241.131543,163.612392 C242.564454,163.552318 243.913626,162.919999 244.877631,161.856709 C245.188333,161.515147 245.454193,161.135243 245.668756,160.72622 C247.774497,161.378096 249.80005,162.265837 251.70697,163.372591 C257.43301,166.699826 262.491939,171.846976 267.632118,179.576265 C268.577193,180.989377 269.509438,182.46672 270.411749,183.89696 L270.548593,184.111067 C273.405198,188.662998 276.642399,193.822995 280.948689,197.865349 C284.904318,201.565131 291.4728,205.243502 298.220889,204.686822 C298.962676,205.986036 300.274526,206.857272 301.758347,207.036146 C303.242169,207.21502 304.72303,206.680443 305.751551,205.594639 C306.621174,204.687363 307.092392,203.469549 307.060262,202.212405 C307.028133,200.955261 306.495326,199.763177 305.580497,198.90163 L305.597602,198.897348 Z M243.556237,158.216877 C243.55503,158.574964 243.476243,158.928526 243.325314,159.253158 L243.175641,159.604295 C243.092433,159.738631 242.994934,159.863543 242.884849,159.976843 C242.202607,160.719586 241.162065,161.016526 240.191306,160.745502 C239.220547,160.474477 238.483539,159.681265 238.28349,158.692196 C238.251558,158.558771 238.232936,158.422501 238.227898,158.285391 C238.215864,158.070148 238.231675,157.854251 238.274938,157.643068 C238.520151,156.441271 239.54871,155.55946 240.772329,155.501991 L240.909173,155.501991 C242.230074,155.502636 243.354385,156.465044 243.560513,157.771533 L243.556237,158.216877 Z" id="Shape" fill="#192D5B" fill-rule="nonzero"></path>
                    <path d="M342.069009,121.241833 L266.390848,121.241833 C265.581338,121.240704 264.804596,121.560679 264.231786,122.13125 C263.658975,122.70182 263.337107,123.476159 263.337108,124.283631 L263.337108,158.117789 C263.337108,159.800077 264.704314,161.163842 266.390848,161.163842 L296.122163,161.163842 C297.183361,161.16293 298.168725,161.712378 298.723813,162.614545 L302.511133,168.783227 C302.878582,169.377035 303.528219,169.738562 304.227796,169.738562 C304.927373,169.738562 305.577009,169.377035 305.944458,168.783227 L309.736044,162.614545 C310.291132,161.712378 311.276495,161.16293 312.337694,161.163842 L342.069009,161.163842 C343.753877,161.161494 345.118486,159.798417 345.118484,158.117789 L345.118484,124.283631 C345.118484,123.476896 344.797201,122.703203 344.225314,122.132755 C343.653426,121.562307 342.87778,121.241833 342.069009,121.241833 L342.069009,121.241833 Z" id="Path" fill="#192D5B" fill-rule="nonzero"></path>
                    <rect id="Rectangle" fill="#FFFFFF" fill-rule="nonzero" x="300.584071" y="133.366013" width="25.9109312" height="3.23311547"></rect>
                    <rect id="Rectangle" fill="#FFFFFF" fill-rule="nonzero" x="300.584071" y="139.832244" width="26.7206478" height="3.23311547"></rect>
                    <rect id="Rectangle" fill="#FFFFFF" fill-rule="nonzero" x="300.584071" y="147.106754" width="16.194332" height="3.23311547"></rect>
                    <ellipse id="Oval" fill="#B3B3B3" fill-rule="nonzero" style="mix-blend-mode: multiply;" cx="341.879618" cy="124.474946" rx="9.71659919" ry="9.69934641"></ellipse>
                    <ellipse id="Oval" fill="#A2D729" fill-rule="nonzero" cx="341.879618" cy="122.050109" rx="9.71659919" ry="9.69934641"></ellipse>
                    <polygon id="Path" fill="#FFFFFF" fill-rule="nonzero" points="340.448407 125.283224 337.021318 121.928702 338.163681 120.806276 340.448407 123.046876 345.591211 118.008715 346.737917 119.13114"></polygon>
                    <ellipse id="Oval" fill="#B3B3B3" fill-rule="nonzero" cx="282.770306" cy="141.448802" rx="11.3360324" ry="11.3159041"></ellipse>
                    <ellipse id="Oval" fill="#FFFFFF" fill-rule="nonzero" cx="282.770306" cy="140.640523" rx="11.3360324" ry="11.3159041"></ellipse>
                    <path d="M282.365448,151.95641 C285.603997,151.962003 288.693317,150.610484 290.867472,148.236938 C290.238689,146.82263 289.019441,145.748312 287.526462,145.29307 C286.279956,144.911642 285.214935,144.097418 284.527787,143.000538 C284.597387,142.941035 284.663916,142.878107 284.727121,142.811993 C286.997794,143.266214 288.813466,141.46647 288.813466,141.46647 C287.409462,141.46647 286.776794,140.339487 286.482126,139.323917 C287.305462,135.814415 285.936125,132.557734 282.365448,132.557734 C278.794771,132.557734 277.429767,135.814415 278.248769,139.323917 C277.958435,140.356627 277.321433,141.46647 275.917429,141.46647 C275.917429,141.46647 277.733101,143.266214 280.003774,142.811993 C280.066979,142.878107 280.133508,142.941035 280.203108,143.000538 C279.517615,144.097131 278.454036,144.911429 277.208766,145.29307 C275.714729,145.748248 274.494106,146.822385 273.863423,148.236938 C276.03823,150.609592 279.127128,151.960925 282.365448,151.95641 Z" id="Path" fill="#8BA9ED" fill-rule="nonzero"></path>
                    <path d="M51.7851017,246.854369 C49.8556474,242.77049 47.3298938,239.094141 43.4795038,236.558876 C40.6087485,234.675659 38.6707757,235.443531 37.7763267,238.811015 C37.4270656,240.13227 37.2822501,241.513582 36.9968783,243.160861 C36.3981094,242.224044 35.7438339,241.324418 35.037609,240.466874 C32.8653758,238.171837 30.837958,235.67089 28.3633158,233.766224 C25.697006,231.711415 22.9881033,233.019801 22.4897674,236.404444 C22.2384698,238.120359 22.4897674,239.900622 22.6856943,241.637986 C22.7921764,242.658956 23.2010673,243.645607 23.635514,245.262858 C22.6643979,244.434929 22.1618028,244.040268 21.6975412,243.606999 C18.1964122,240.34676 14.2949109,237.70425 9.71618389,236.314358 C7.9312948,235.731995 6.04674753,235.52467 4.17911868,235.705208 C0.605581973,236.185665 -0.736091521,239.042664 0.81854602,242.320063 C1.18121662,243.045603 1.60892106,243.736268 2.0963303,244.383451 C5.00053963,248.408241 8.91918638,251.578942 13.447314,253.567889 C14.0478726,253.838146 14.6100977,254.207067 15.1893599,254.528802 C13.5708331,254.807638 12.1013812,254.678944 10.6361886,254.700393 C9.15624185,254.675176 7.67692983,254.779958 6.21505496,255.013548 C2.85022303,255.648437 1.88336625,258.21373 4.1067109,260.791893 C5.42910252,262.423733 6.97506329,263.857996 8.69821575,265.051654 C11.4710076,266.844785 14.4823193,268.268995 17.3147411,269.80474 C16.4926999,269.99778 15.449176,270.20798 14.4269486,270.486816 C11.87138,271.181762 11.7308238,271.464888 12.5187907,273.965835 L14.5206528,275.982035 C14.7220078,276.010761 14.9175407,276.071579 15.099915,276.162207 C23.5545876,281.97916 32.8824129,283.098795 42.7213518,281.309953 C45.9394935,280.791123 48.8616648,279.114576 50.9460233,276.591185 C48.8419385,274.67365 46.9891513,272.794722 44.9148815,271.198921 C43.9775518,270.512381 42.8296504,270.181192 41.6735687,270.263747 C35.9874287,270.920085 30.3268443,271.778042 24.636445,272.554494 C23.9677379,272.64887 23.2905122,272.657449 22.6175458,272.700347 L22.498286,271.790912 L42.5169064,268.993969 C39.8761522,266.806177 37.5420662,265.068813 35.4507593,263.074061 C34.1346415,261.821443 32.8142644,261.478259 31.0892556,261.66272 C28.0097955,261.993034 24.909039,262.143177 21.8210603,262.344797 C21.3073931,262.3476 20.793997,262.320386 20.2834599,262.263291 C20.2834599,261.980165 20.2834599,261.697039 20.2834599,261.405333 L31.8431483,260.521637 C31.8942597,260.362914 31.9496304,260.204192 32.0007417,260.04976 L14.6995426,247.703748 L15.0871371,247.146075 C21.0501305,250.453502 26.4083059,254.721842 32.2179651,259.03308 C31.2894418,255.601249 30.4844377,252.628425 29.6623965,249.642732 L30.3864743,249.398214 C30.6419512,249.939372 30.8694177,250.493497 31.0679592,251.058362 C31.762222,253.396297 32.2605579,255.807159 33.1464883,258.063588 C33.7931416,259.500605 34.6677997,260.82199 35.7361311,261.975875 C36.5581723,262.936788 37.6783632,263.640313 38.6665164,264.455373 L43.6370972,268.560701 C42.8704267,259.925356 42.1463489,251.744729 41.4222712,243.568391 L42.2741273,243.448277 C42.3763501,244.040268 42.5169064,244.632259 42.572277,245.232829 C43.2793176,252.868653 43.9650619,260.500188 44.7019175,268.131722 C44.7615474,268.762321 44.8595109,269.573091 45.2641426,269.959172 C47.2915603,271.902446 49.42546,273.734186 51.8873244,275.926268 C52.6880692,274.025892 53.5527033,272.494437 54.0169649,270.838579 C56.2190131,262.585025 55.4310461,254.55454 51.7851017,246.854369 Z" id="Path" fill="#3360CC" fill-rule="nonzero"></path>
                    <ellipse id="Oval" fill="#B3B3B3" fill-rule="nonzero" style="mix-blend-mode: multiply;" cx="359.693383" cy="73.5533769" rx="20.242915" ry="20.2069717"></ellipse>
                    <ellipse id="Oval" fill="#E52C65" fill-rule="nonzero" cx="359.693383" cy="70.3202614" rx="20.242915" ry="20.2069717"></ellipse>
                    <path d="M365.784205,66.9592617 L363.407687,66.9592617 C363.096256,66.9603735 362.797198,66.8374879 362.576589,66.6177556 C362.35598,66.3980233 362.231978,66.0995303 362.23198,65.7882264 L362.23198,63.4085155 C362.231982,63.0972117 362.10798,62.7987187 361.887371,62.5789864 C361.666762,62.359254 361.367705,62.2363684 361.056273,62.2374802 L357.49568,62.2374802 C356.848665,62.2374802 356.324157,62.7617706 356.324157,63.4085155 L356.324157,65.7882264 C356.324159,66.0995303 356.200157,66.3980233 355.979548,66.6177556 C355.758939,66.8374879 355.459881,66.9603735 355.14845,66.9592617 L352.767747,66.9592617 C352.456314,66.9592597 352.157697,67.0832102 351.937873,67.3037273 C351.718049,67.5242444 351.595112,67.8231774 351.596224,68.1344792 L351.596224,71.69359 C351.595112,72.0048918 351.718049,72.3038248 351.937873,72.5243419 C352.157697,72.744859 352.456314,72.8688095 352.767747,72.8688075 L355.14845,72.8688075 C355.459881,72.8676957 355.758939,72.9905813 355.979548,73.2103136 C356.200157,73.430046 356.324159,73.7285389 356.324157,74.0398428 L356.324157,76.4195537 C356.323044,76.7308556 356.445981,77.0297885 356.665805,77.2503056 C356.885629,77.4708227 357.184246,77.5947732 357.49568,77.5947712 L361.077193,77.5947712 C361.726518,77.5947712 362.2529,77.0686084 362.2529,76.4195537 L362.2529,74.0398428 C362.252898,73.7285389 362.3769,73.430046 362.597509,73.2103136 C362.818118,72.9905813 363.117176,72.8676957 363.428607,72.8688075 L365.805125,72.8688075 C366.45445,72.8688075 366.980832,72.3426447 366.980832,71.69359 L366.980832,68.1344792 C366.980882,67.819135 366.854146,67.5170005 366.629113,67.2959934 C366.404079,67.0749863 366.099631,66.9536506 365.784205,66.9592617 L365.784205,66.9592617 Z" id="Path" fill="#FFFFFF" fill-rule="nonzero"></path>
                    <path d="M113.85417,231.227626 L113.466949,231.227626 L113.466949,210.394474 C113.466949,205.796838 109.695296,202.069717 105.042726,202.069717 L57.8404056,202.069717 C53.1871396,202.069716 49.4142561,205.79615 49.4118808,210.394474 L49.4118808,219.038107 L49.2957143,219.038107 C49.022453,219.038107 48.800931,219.257013 48.800931,219.527048 L48.800931,223.680923 C48.8009209,223.951654 49.0217586,224.171782 49.2957143,224.174116 L49.4118808,224.174116 L49.4118808,228.42578 L49.2569921,228.42578 C48.9837309,228.42578 48.7622089,228.644686 48.7622089,228.914721 L48.7622089,236.869584 C48.7622089,236.999259 48.8143377,237.123624 48.9071275,237.215318 C48.9999174,237.307012 49.1257674,237.358525 49.2569921,237.358525 L49.4118808,237.358525 L49.4118808,240.48775 L49.2785044,240.48775 C49.1469278,240.486604 49.020403,240.53775 48.9273606,240.629693 C48.8343183,240.721637 48.7825619,240.846668 48.7837212,240.976691 L48.7837212,249.008084 C48.7825619,249.138107 48.8343183,249.263138 48.9273606,249.355082 C49.020403,249.447026 49.1469278,249.498171 49.2785044,249.497025 L49.4118808,249.497025 L49.4118808,312.561953 C49.4142561,317.160277 53.1871396,320.886711 57.8404056,320.88671 L105.042726,320.88671 C107.276969,320.88671 109.419703,320.00964 110.999551,318.448445 C112.579399,316.88725 113.466949,314.769816 113.466949,312.561953 L113.466949,246.839735 L113.85417,246.839735 C114.127432,246.839735 114.348954,246.620829 114.348954,246.350794 L114.348954,231.733574 C114.353624,231.600978 114.303564,231.4722 114.210263,231.376793 C114.116962,231.281387 113.988432,231.227546 113.85417,231.227626 L113.85417,231.227626 Z" id="Path" fill="#8BA9ED" fill-rule="nonzero"></path>
                    <rect id="Rectangle" fill="#E6E8EC" fill-rule="nonzero" x="75.4828567" y="206.111111" width="8.90688259" height="1.61655773" rx="0.808278867"></rect>
                    <ellipse id="Oval" fill="#E6E8EC" fill-rule="nonzero" cx="86.4140307" cy="206.515251" rx="1.2145749" ry="1.2124183"></ellipse>
                    <path d="M104.42973,205.302832 L97.1504743,205.302832 L97.1504743,206.180439 C97.1481112,208.470461 95.2815685,210.325643 92.979889,210.325642 L69.6991163,210.325642 C67.3981304,210.325642 65.5328128,208.469772 65.5328128,206.180439 L65.5328128,206.180439 L65.5328128,205.302832 L58.6817486,205.302832 C55.8865119,205.302832 53.6205248,207.557343 53.6205248,210.338423 L53.6205248,210.338423 L53.6205248,312.613737 C53.6171066,313.950689 54.1491061,315.233926 55.098888,316.179697 C56.0486698,317.125468 57.3379878,317.655858 58.6817486,317.653588 L104.42973,317.653588 C105.77205,317.653588 107.059392,317.123054 108.008556,316.178697 C108.957719,315.234341 109.490954,313.953519 109.490954,312.617997 L109.490954,210.342683 C109.490955,207.560913 107.225659,205.305184 104.42973,205.302832 L104.42973,205.302832 Z" id="Path" fill="#E6F0FF" fill-rule="nonzero"></path>
                    <path d="M37.1353919,296.638337 L66.6537493,296.638337 C66.9207779,296.637131 67.1661603,296.49166 67.2947792,296.258314 C67.423398,296.024967 67.4150325,295.74043 67.2729253,295.514997 L65.0069131,291.952036 C64.8741467,291.739874 64.8040998,291.494667 64.8048209,291.244589 L64.8048209,274.523113 C64.8048209,274.171739 64.6648387,273.834757 64.4156687,273.586298 C64.1664988,273.33784 63.8285518,273.198257 63.4761723,273.198257 L37.1353919,273.198257 C36.7830124,273.198257 36.4450654,273.33784 36.1958955,273.586298 C35.9467255,273.834757 35.8067433,274.171739 35.8067433,274.523113 L35.8067433,295.317769 C35.8067414,295.66875 35.9468607,296.005293 36.196155,296.253071 C36.4454494,296.500849 36.7834083,296.639477 37.1353919,296.638337 Z" id="Path" fill="#192D5B" fill-rule="nonzero"></path>
                    <path d="M45.9282008,283.705882 L43.499051,283.705882 C43.2754539,283.705882 43.0941927,283.887427 43.0941927,284.111373 L43.0941927,290.574901 C43.0941927,290.798848 43.2754539,290.980392 43.499051,290.980392 L45.9282008,290.980392 C46.1517978,290.980392 46.3330591,290.798848 46.3330591,290.574901 L46.3330591,284.111373 C46.3330591,283.887427 46.1517978,283.705882 45.9282008,283.705882 Z" id="Path" fill="#FFFFFF" fill-rule="nonzero"></path>
                    <path d="M58.4693713,283.61593 C58.4826441,283.240497 58.3395135,282.876327 58.0739597,282.609877 C57.8084059,282.343428 57.4441124,282.198461 57.0675649,282.209394 L52.9052782,282.209394 C53.5198912,281.093401 53.6477686,279.774615 53.2589648,278.561861 C53.0391701,277.827693 52.3900373,277.303331 51.6242429,277.241352 L51.6242429,277.241352 C51.1354878,277.211578 50.7122757,277.57633 50.6710145,278.062907 C50.5674965,279.146843 50.0887257,281.073841 49.4072322,281.744849 C48.8617212,282.261522 48.223821,282.67151 47.526655,282.953524 L47.1427757,283.142783 C47.1449204,283.172855 47.1449204,283.20304 47.1427757,283.233111 L47.1427757,290.020618 L47.4317635,290.119549 C48.7948633,290.669502 50.2488212,290.961241 51.7191344,290.979816 L55.0834697,290.979816 C55.4600172,290.990748 55.8243107,290.845782 56.0898645,290.579332 C56.3554183,290.312882 56.4985489,289.948712 56.4852761,289.573279 C56.4850696,289.364768 56.4425196,289.158458 56.3601918,288.966791 C56.6590231,288.914895 56.9312803,288.763217 57.1322636,288.536657 C57.3611707,288.271249 57.4853613,287.931814 57.4816369,287.581761 C57.4809592,287.373298 57.4384283,287.167081 57.3565527,286.975273 C58.0230437,286.857822 58.5012157,286.269094 58.4779978,285.594544 C57.9715433,285.028409 57.9715433,284.173462 58.4779978,283.607327 L58.4693713,283.61593 Z" id="Path" fill="#FFFFFF" fill-rule="nonzero"></path>
                    <path d="M125.97607,252.182999 L96.457713,252.182999 C96.1906844,252.181781 95.945302,252.034828 95.8166831,251.799103 C95.6880643,251.563378 95.6964298,251.275941 95.838537,251.048211 L98.1002494,247.448939 C98.2367549,247.236088 98.3084958,246.987677 98.3066414,246.734282 L98.3066414,232.506113 C98.3066414,231.766959 98.9014976,231.167756 99.63529,231.167756 L125.97607,231.167756 C126.709863,231.167756 127.304719,231.766959 127.304719,232.506113 L127.304719,250.848973 C127.304721,251.203531 127.164602,251.543504 126.915307,251.793807 C126.666013,252.04411 126.328054,252.184151 125.97607,252.182999 Z" id="Path" fill="#192D5B" fill-rule="nonzero"></path>
                    <rect id="Rectangle" fill="#FFFFFF" fill-rule="nonzero" x="104.632654" y="236.825708" width="16.194332" height="2.4248366"></rect>
                    <rect id="Rectangle" fill="#FFFFFF" fill-rule="nonzero" x="104.632654" y="242.48366" width="12.145749" height="2.4248366"></rect>
                    <rect id="Rectangle" fill="#3360CC" fill-rule="nonzero" x="61.7176745" y="236.825708" width="25.1012146" height="4.04139434"></rect>
                    <rect id="Rectangle" fill="#3360CC" fill-rule="nonzero" x="62.5273911" y="247.333333" width="29.1497976" height="4.04139434"></rect>
                    <rect id="Rectangle" fill="#3360CC" fill-rule="nonzero" x="62.5273911" y="257.03268" width="14.5748988" height="4.04139434"></rect>
                    <rect id="Rectangle" fill="#3360CC" fill-rule="nonzero" x="81.9605894" y="282.089325" width="20.242915" height="4.04139434"></rect>
                    <rect id="Rectangle" fill="#3360CC" fill-rule="nonzero" x="70.6245571" y="291.788671" width="31.5789474" height="4.04139434"></rect>
                    <ellipse id="Oval" fill="#8BA9ED" fill-rule="nonzero" cx="67.790549" cy="224.297386" rx="5.26315789" ry="5.25381264"></ellipse>
                    <ellipse id="Oval" fill="#8BA9ED" fill-rule="nonzero" cx="96.9403465" cy="271.985839" rx="5.26315789" ry="5.25381264"></ellipse>
                    <path d="M520.629392,68.0308699 C507.048877,47.6965486 480.59427,40.3625927 458.453861,50.7940766 C436.313452,61.2255605 425.170667,86.2735791 432.265283,109.663741 C439.359898,133.053903 462.550294,147.725525 486.769028,144.146048 C510.987762,140.566572 528.924033,119.816517 528.92415,95.3777688 C528.926749,85.6442886 526.040372,76.1282236 520.629392,68.0308699 Z" id="Path" fill="#B3B3B3" fill-rule="nonzero" style="mix-blend-mode: multiply;"></path>
                    <path d="M479.53144,42.0326391 C461.651607,41.8679414 445.058403,51.2288293 436.070179,66.5508696 C427.081954,81.8729098 427.081954,100.798114 436.070179,116.120154 C445.058403,131.442195 461.651607,140.803083 479.53144,140.638385 L479.53144,42.0326391 L479.53144,42.0326391 Z" id="Path" fill="#8BA9ED" fill-rule="nonzero"></path>
                    <path d="M479.53144,91.2369469 L479.53144,140.640523 C497.745292,140.635342 514.479081,130.610162 523.075299,114.553482 C531.671517,98.4968015 530.735792,79.0131381 520.6404,63.8540305 L479.53144,91.2369469 Z" id="Path" fill="#3360CC" fill-rule="nonzero"></path>
                    <path d="M520.01727,59.9445502 C510.818777,46.2209729 495.31832,37.9799079 478.721723,37.9891068 L478.721723,87.2941176 L520.01727,59.9445502 Z" id="Path" fill="#FFFFFF" fill-rule="nonzero"></path>
                    <path d="M502.176295,118.008709 C501.265559,118.01038 500.392497,117.65159 499.754056,117.013275 L492.728701,110.117251 C492.379093,109.792022 492.236791,109.305848 492.357124,108.84776 C492.477457,108.389673 492.841436,108.031954 493.307542,107.913692 C493.773649,107.795429 494.268333,107.935283 494.599255,108.278876 L501.646161,115.179136 C501.791898,115.324002 501.990561,115.405526 502.197845,115.405526 C502.405129,115.405526 502.603792,115.324002 502.749529,115.179136 L512.231604,105.860185 L512.291944,105.800882 C513.444271,104.683952 514.086547,103.155558 514.071988,101.564995 C514.063707,99.9788622 513.424907,98.4587381 512.291944,97.329108 C511.151799,96.2002386 509.600329,95.5653406 507.98191,95.5653406 C506.363491,95.5653406 504.812021,96.2002386 503.671876,97.329108 L503.611536,97.3884104 L503.090022,97.9009528 C502.855857,98.1558569 502.521389,98.2993798 502.171985,98.2948903 L502.171985,98.2948903 C501.817754,98.280981 501.480752,98.1409716 501.223777,97.9009528 L500.637613,97.329108 C498.585014,95.3256027 495.380456,95.0204728 492.974694,96.5994641 C490.568932,98.1784555 489.627937,101.204466 490.724535,103.835431 L495.594873,103.835431 L497.620589,100.400126 C497.857621,100.002891 498.285779,99.7532957 498.754128,99.7393278 L498.754128,99.7393278 C499.226412,99.7396072 499.66097,99.9929334 499.887667,100.400126 L503.503785,106.605701 L504.727835,104.487757 C504.966644,104.092264 505.393729,103.843295 505.861374,103.826959 L508.343953,103.826959 C508.832347,103.799486 509.296092,104.039949 509.548718,104.451657 C509.801344,104.863366 509.801344,105.378678 509.548718,105.790387 C509.296092,106.202096 508.832347,106.442559 508.343953,106.415086 L506.61994,106.415086 L504.628704,109.85039 C504.389895,110.245883 503.96281,110.494853 503.495165,110.511189 L503.495165,110.511189 C503.020523,110.519502 502.581781,110.263736 502.361626,109.85039 L498.762748,103.64058 L497.534388,105.758523 C497.298416,106.157386 496.870066,106.408695 496.400849,106.423558 L489.905628,106.423558 C489.421639,106.433453 488.972566,106.176818 488.741919,105.758523 C486.657915,102.09454 487.568612,97.4873739 490.896871,94.8567376 C494.22513,92.2261014 498.999175,92.3400823 502.193535,95.1264467 C505.659058,92.1044196 510.917482,92.2490558 514.205599,95.4568459 C517.612325,98.7898845 517.639289,104.201579 514.26594,107.567247 L514.205599,107.62655 L504.598534,117.000568 C503.962252,117.643553 503.088918,118.007036 502.176295,118.008709 Z" id="Path" fill="#192D5B" fill-rule="nonzero"></path>
                    <path d="M452.535116,83.2027203 C453.642358,84.246493 454.195979,85.7146567 454.195979,87.6072115 C454.195979,89.4997663 453.642358,90.9664963 452.535116,92.0074014 C451.376715,93.0675317 449.843604,93.6288334 448.270504,93.5687591 C446.678358,93.6345504 445.124308,93.0735481 443.945339,92.0074014 C442.838097,90.9664963 442.284476,89.4997663 442.284476,87.6072115 C442.284476,85.7146567 442.838097,84.246493 443.945339,83.2027203 C445.124308,82.1365736 446.678358,81.5755714 448.270504,81.6413626 C449.843604,81.5812883 451.376715,82.14259 452.535116,83.2027203 L452.535116,83.2027203 Z M467.51316,81.9983673 L453.737511,107.14784 L447.846637,107.14784 L461.622286,81.9854635 L467.51316,81.9983673 Z M446.843199,89.3105108 C447.168109,89.7213764 447.671837,89.9518427 448.196976,89.9298924 C448.743083,89.9520372 449.269204,89.7237259 449.62428,89.3105108 C450.337127,88.2730433 450.337127,86.9069696 449.62428,85.8695021 C449.269204,85.456287 448.743083,85.2279757 448.196976,85.2501205 C447.671837,85.2281702 447.168109,85.4586365 446.843199,85.8695021 C446.175662,86.9204514 446.175662,88.2595615 446.843199,89.3105108 L446.843199,89.3105108 Z M471.410133,97.1000943 C472.502958,98.1409995 473.050812,99.6077294 473.053696,101.500284 C473.056579,103.392839 472.508725,104.866738 471.410133,105.92198 C468.954649,108.027459 465.319093,108.027459 462.863608,105.92198 C461.756366,104.869605 461.202745,103.395707 461.202745,101.500284 C461.202745,99.6048619 461.756366,98.138132 462.863608,97.1000943 C465.327853,95.0181928 468.945888,95.0181928 471.410133,97.1000943 L471.410133,97.1000943 Z M465.735517,103.276705 C466.085289,103.671116 466.588603,103.897065 467.117407,103.897065 C467.646212,103.897065 468.149526,103.671116 468.499297,103.276705 C468.875251,102.769393 469.059057,102.146383 469.018317,101.517489 C469.055002,100.901035 468.871142,100.291558 468.499297,99.7969849 C468.149526,99.4025735 467.646212,99.1766249 467.117407,99.1766249 C466.588603,99.1766249 466.085289,99.4025735 465.735517,99.7969849 C465.375402,100.296577 465.198325,100.903811 465.233798,101.517489 C465.193881,102.143691 465.370957,102.764586 465.735517,103.276705 L465.735517,103.276705 Z" id="Shape" fill="#3360CC" fill-rule="nonzero"></path>
                    <path d="M391.645722,175.256758 C390.959381,173.127282 389.625305,168.306147 389.093391,166.449244 C389.8841,166.461089 390.645769,166.153682 391.20389,165.597453 C392.18508,164.541268 392.304156,162.953183 391.491295,161.764396 C391.072938,161.243093 390.43516,160.943333 389.763874,160.952497 C389.092588,160.961661 388.463352,161.278718 388.059589,161.811245 C389.775442,158.476485 388.775958,153.812932 385.871876,151.640866 C382.967795,149.4688 378.579501,150.082089 376.280258,152.990954 L377.429879,152.203048 C376.14299,153.761824 374.830362,155.36319 374.113993,157.313791 C373.174564,159.869162 373.165984,163.046341 371.141278,164.681779 C370.76808,164.979905 370.313379,165.265255 370.231876,165.755035 C370.107476,166.496092 370.961113,167.007167 371.656034,166.960318 C372.350954,166.91347 373.028716,166.559977 373.719347,166.662192 C373.534893,168.531872 373.359018,170.465436 373.908091,172.249937 C374.457164,174.034439 375.928508,175.631546 377.670099,175.593215 C378.434181,175.525724 379.176022,175.302443 379.849232,174.937337 C380.368278,174.698835 382.787631,173.233755 383.302387,172.9697 C383.49542,173.612802 385.142639,178.25932 385.24559,178.932234 L382.890582,182.071082 L386.047751,185.904139 C388.192568,184.830883 392.507938,182.594933 394.511197,181.219292 C393.237176,179.975677 392.503649,176.870901 391.645722,175.256758 Z" id="Path" fill="#E2BE96" fill-rule="nonzero"></path>
                    <polygon id="Path" fill="#D6AF8A" fill-rule="nonzero" points="383.175164 173.384361 385.604314 171.35512 385.277737 174.832599 384.870432 179.437908"></polygon>
                    <path d="M398.177488,149.420149 C397.111176,148.071275 395.520378,147.364924 393.990264,146.701125 L389.126841,144.594838 C386.270339,143.356597 382.824331,142.169417 380.27992,144.033162 C379.599388,144.535267 379.048894,145.220342 378.377031,145.735212 C377.705167,146.250082 376.820909,146.586236 376.04935,146.275612 C375.277791,145.964988 374.853,144.752278 375.451175,144.14805 C373.82701,144.607994 372.383453,145.541344 371.311631,146.824523 C370.275661,148.177653 369.85087,150.160541 370.596422,151.717916 C371.076281,152.706905 372.05132,153.374654 373.162506,153.475283 C375.648644,155.02604 378.554071,155.803226 381.497943,155.704968 C382.291175,155.675182 383.184103,155.611355 383.773609,156.181542 C384.454141,156.841086 384.367449,158.019755 384.012012,158.926097 C383.656575,159.832438 383.088742,160.657932 382.950035,161.628101 C382.594597,164.181175 385.260377,166.92573 383.86897,169.036272 C385.12167,169.461784 386.305016,168.087379 386.669122,166.73425 C387.033229,165.38112 386.998552,163.874806 387.726765,162.704647 C388.454978,161.534488 390.470568,161.211098 390.904028,162.538697 C391.164104,163.342916 390.656955,164.210961 390.037107,164.747107 C389.417259,165.283252 388.667373,165.649193 388.142887,166.291717 C387.177097,167.615363 387.362677,169.437144 388.576347,170.546841 C390.422887,168.512892 393.981594,169.193711 395.659085,167.002322 C397.336576,164.810933 395.884484,161.236629 396.959465,158.568666 C397.392925,157.449569 398.259846,156.577268 398.806005,155.500722 C399.740742,153.512843 399.499938,151.183191 398.177488,149.420149 L398.177488,149.420149 Z" id="Path" fill="#534741" fill-rule="nonzero"></path>
                    <path d="M384.794598,154.231332 C386.332511,154.071556 387.731236,155.187716 388.021191,156.8061 C388.582221,156.387234 388.792037,155.607005 388.524421,154.934771 C389.30366,154.949405 389.930093,155.623375 389.936849,156.454381 C389.936849,156.454381 390.943309,156.219901 390.541571,154.583052 C390.541571,154.583052 391.852507,154.231332 392.051262,155.985421 C392.346547,155.903446 392.593964,155.688919 392.729447,155.39739 C392.86493,155.105861 392.875156,154.766001 392.757475,154.465812 C392.757475,154.465812 394.271395,154.231332 394.673133,155.750941 C394.673133,155.750941 395.984069,153.766881 394.876117,153.045405 C394.876117,153.045405 394.068411,150.592386 392.655984,150.339869 C392.655984,150.339869 393.260706,151.507759 393.078866,152.328438 C393.078866,152.328438 391.061716,150.105389 389.750781,150.574349 C389.750781,150.574349 390.960225,151.507759 390.960225,152.328438 C390.960225,152.328438 389.044567,150.574349 388.139598,151.043309 C388.139598,151.043309 389.24755,151.742239 389.044567,152.562918 C389.044567,152.562918 386.507272,151.273279 386.122449,151.976719 C386.122449,151.976719 387.027417,152.328438 387.027417,152.910128 C387.010502,152.946202 384.794598,152.481752 384.794598,154.231332 Z" id="Path" fill="#60534D" fill-rule="nonzero"></path>
                    <path d="M316.360148,179.594367 L338.998668,194.310128 L352.694206,191.120208 L356.454517,204.369982 L335.928244,206.111111 L312.420978,183.196998 C306.097012,183.867655 299.768788,179.891003 297.043308,177.60819 C295.814206,176.620191 294.831233,175.35549 294.173037,173.915278 C294.051279,173.636712 294.098706,173.312325 294.294991,173.081148 C294.491275,172.849971 294.801571,172.753043 295.092886,172.831909 L301.617004,174.530047 L312.544476,174.018456 L312.544476,170.940312 L313.677254,168.6532 C313.837842,168.318387 314.178655,168.11042 314.546951,168.122504 C314.915247,168.134587 315.241964,168.364455 315.380679,168.709088 L316.360148,179.594367 Z" id="Path" fill="#E2BE96" fill-rule="nonzero"></path>
                    <polygon id="Path" fill="#D6AF8A" fill-rule="nonzero" points="345.928201 192.403221 352.397727 190.753813 354.835083 203.910117 350.188201 204.494553"></polygon>
                    <polygon id="Path" fill="#E2BE96" fill-rule="nonzero" points="411.623641 217.377344 415.026243 227.178833 410.371382 248.130211 405.847229 246.09908 408.680622 260.265795 425.280428 224.294285 423.19333 208.535948"></polygon>
                    <polygon id="Path" fill="#152649" fill-rule="nonzero" points="350.7865 191.172788 352.963188 206.111111 367.432011 202.910042 370.219699 182.671024"></polygon>
                    <polygon id="Path" fill="#D6AF8A" fill-rule="nonzero" points="412.324962 218.202501 412.890722 219.851852 425.280428 216.578656 423.898921 208.535948"></polygon>
                    <path d="M418.121645,187.108924 C415.634983,182.048769 405.688335,179.465134 395.514849,178.62963 L393.199386,178.62963 L393.105227,178.681045 C384.164372,183.312736 385.529682,178.681045 385.529682,178.681045 L385.529682,178.681045 L379.730324,178.706753 C375.595875,179.135217 372.403018,179.910736 371.084787,180.92191 C365.704867,185.069437 364.108438,210.237387 364.108438,210.237387 L362.122533,247.256639 C386.090358,259.857752 408.632954,247.762226 408.632954,247.762226 L408.671474,211.835556 C408.671474,211.835556 411.089656,216.37727 412.437846,219.269399 L426.899861,210.777251 C426.899861,210.777251 419.414195,189.735405 418.121645,187.108924 Z" id="Path" fill="#192D5B" fill-rule="nonzero"></path>
                    <polygon id="Path" fill="#BDCCD4" fill-rule="nonzero" points="362.122533 247.53654 362.747458 251.428839 374.749448 356.200827 380.823208 356.102666 385.642837 282.089231 386.220679 277.189714 392.872281 357.259259 399.044488 356.678829 409.086096 260.779747 408.585299 246.525054"></polygon>
                    <path d="M311.919902,173.779956 L300.907059,174.257569 C298.812644,176.64162 307.589443,177.789497 307.589443,177.789497 C307.589443,177.789497 311.954237,178.447719 311.919902,173.779956 Z" id="Path" fill="#D6AF8A" fill-rule="nonzero"></path>
                    <polygon id="Path" fill="#A3BBC6" fill-rule="nonzero" points="362.122533 247.710997 409.086096 254.607843 408.50498 246.525054"></polygon>
                    <ellipse id="Oval" fill="#1649BF" fill-rule="nonzero" cx="386.009172" cy="185.904139" rx="1.2145749" ry="1"></ellipse>
                    <ellipse id="Oval" fill="#1649BF" fill-rule="nonzero" cx="385.199456" cy="189.945534" rx="1.2145749" ry="1"></ellipse>
                    <ellipse id="Oval" fill="#1649BF" fill-rule="nonzero" cx="384.389739" cy="194.795207" rx="1.2145749" ry="1"></ellipse>
                    <path d="M592.962495,159.97665 C597.186675,164.224884 597.186675,171.080675 592.962495,175.328909 L576.657179,191.610564 C572.40685,195.855914 565.51474,195.856877 561.26322,191.612716 C557.011701,187.368554 557.010736,180.486445 561.261066,176.241094 L577.570691,159.955136 C581.839787,155.748052 588.70521,155.757648 592.962495,159.97665 Z M590.028055,167.489274 C589.982502,167.437339 589.93356,167.388467 589.881549,167.34298 C589.821007,167.292212 589.757712,167.24481 589.691952,167.200989 C589.580494,167.117139 589.460639,167.045041 589.334304,166.985851 C589.203495,166.93274 589.067848,166.892393 588.929256,166.865374 C588.573282,166.787718 588.203836,166.796572 587.852002,166.89119 C587.504679,166.976821 587.184571,167.148481 586.921255,167.390311 L582.38817,171.938331 C582.27878,172.055539 582.182015,172.183892 582.099466,172.321277 C582.064994,172.381516 582.03914,172.446057 582.004668,172.510599 C581.970196,172.57514 581.935724,172.635379 581.909869,172.69992 C581.889519,172.763266 581.87368,172.827968 581.86247,172.893545 C581.805914,173.102356 581.781218,173.31849 581.789217,173.534656 C581.789217,173.607803 581.789217,173.676648 581.815071,173.749795 C581.81773,173.821887 581.824926,173.893742 581.836616,173.964933 C581.89365,174.174997 581.982275,174.375203 582.099466,174.558714 C582.216661,174.747401 582.361962,174.917157 582.530368,175.062137 C582.750084,175.245803 582.999173,175.391257 583.267209,175.492414 C583.336154,175.513927 583.387862,175.522533 583.461115,175.539744 C583.680263,175.587833 583.90526,175.603777 584.129013,175.587074 C584.341954,175.57207 584.551276,175.52417 584.749511,175.445083 C584.946563,175.37004 585.131077,175.265586 585.296756,175.135284 C585.352773,175.087954 585.413099,175.01911 585.464808,174.967477 L590.002201,170.436667 C590.061005,170.386552 590.115755,170.33188 590.165944,170.273162 C590.20898,170.219302 590.249249,170.163294 590.286596,170.105354 C590.32247,170.044473 590.354143,169.981219 590.381395,169.916033 C590.417292,169.853679 590.448962,169.788993 590.476193,169.722408 C590.523291,169.582831 590.555077,169.43856 590.570991,169.292132 C590.613483,169.005025 590.597359,168.712301 590.523592,168.431579 C590.497981,168.293325 590.459017,168.157872 590.407249,168.02712 C590.346335,167.901848 590.274226,167.78232 590.191798,167.66999 C590.14068,167.606711 590.086012,167.546375 590.028055,167.489274 L590.028055,167.489274 Z M580.216426,181.955164 L570.930497,172.682709 L564.316158,179.287451 C562.61404,180.934957 561.933238,183.370598 562.534877,185.660174 C563.136517,187.94975 564.9272,189.737835 567.220103,190.338601 C569.513007,190.939367 571.952187,190.259553 573.602087,188.559905 L580.216426,181.955164 Z" id="Shape" fill="#3360CC"></path>
                    <path d="M558.934999,206.11123 C565.11388,206.135915 570.415264,210.513193 571.598236,216.567087 C572.781208,222.620981 569.516454,228.666218 563.799829,231.007142 C558.083204,233.348065 551.506091,231.333013 548.089301,226.193855 C544.67251,221.054697 545.367203,214.222061 549.748689,209.872969 C552.188236,207.45012 555.493747,206.096533 558.934999,206.11123 L558.934999,206.11123 Z M558.934999,210.126617 C557.259434,210.12672 555.617716,210.597506 554.197567,211.485142 L566.536423,223.763458 C568.228476,221.007803 568.300846,217.555585 566.725758,214.731683 C565.15067,211.90778 562.172806,210.150872 558.934999,210.135215 L558.934999,210.126617 Z M552.440411,220.014617 C551.472475,221.591124 551.715147,223.624736 553.026985,224.930159 C554.338824,226.235583 556.376792,226.471459 557.953059,225.500307 L552.440411,220.014617 Z" id="Shape" fill="#3360CC"></path>
                    <ellipse id="Oval" fill="#3360CC" fill-rule="nonzero" cx="594.106338" cy="203.282135" rx="5.26315789" ry="5.25381264"></ellipse>
                    <ellipse id="Oval" fill="#BDCCD4" fill-rule="nonzero" cx="531.353302" cy="220.660131" rx="3.2388664" ry="3.23311547"></ellipse>
                    <ellipse id="Oval" fill="#E6F0FF" fill-rule="nonzero" cx="554.025367" cy="152.764706" rx="5.66801619" ry="5.65795207"></ellipse>
                    <ellipse id="Oval" fill="#E6F0FF" fill-rule="nonzero" cx="585.199456" cy="235.61329" rx="4.4534413" ry="4.44553377"></ellipse>
                    <g id="Group" opacity="0.5" transform="translate(203.418079, 223.893246)" fill="#8BA9ED" fill-rule="nonzero">
                        <rect id="Rectangle" x="0.371963563" y="0.368375661" width="9.65395086" height="9.67200282"></rect>
                        <rect id="Rectangle" x="17.6447543" y="0.368375661" width="9.65395086" height="9.67200282"></rect>
                        <rect id="Rectangle" x="34.9218205" y="0.368375661" width="9.65395086" height="9.67200282"></rect>
                        <rect id="Rectangle" x="52.1946112" y="0.368375661" width="9.65395086" height="9.67200282"></rect>
                        <rect id="Rectangle" x="69.4716774" y="0.368375661" width="9.65395086" height="9.67200282"></rect>
                        <path d="M8.49958118,18.183194 L8.49958118,24.8011055 L1.89402136,24.8011055 L1.89402136,18.183194 L8.49958118,18.183194 L8.49958118,18.183194 Z M10.0259144,16.6582901 L0.371963563,16.6582901 L0.371963563,26.3302929 L10.0259144,26.3302929 L10.0259144,16.6582901 L10.0259144,16.6582901 Z" id="Shape"></path>
                        <rect id="Rectangle" x="17.6447543" y="16.6582901" width="9.65395086" height="9.67200282"></rect>
                        <rect id="Rectangle" x="34.9218205" y="16.6582901" width="9.65395086" height="9.67200282"></rect>
                        <rect id="Rectangle" x="52.1946112" y="16.6582901" width="9.65395086" height="9.67200282"></rect>
                        <rect id="Rectangle" x="69.4716774" y="16.6582901" width="9.65395086" height="9.67200282"></rect>
                        <rect id="Rectangle" x="0.371963563" y="32.9482045" width="9.65395086" height="9.67200282"></rect>
                        <rect id="Rectangle" x="17.6447543" y="32.9482045" width="9.65395086" height="9.67200282"></rect>
                        <rect id="Rectangle" x="34.9218205" y="32.9482045" width="9.65395086" height="9.67200282"></rect>
                        <rect id="Rectangle" x="52.1946112" y="32.9482045" width="9.65395086" height="9.67200282"></rect>
                        <rect id="Rectangle" x="69.4716774" y="32.9482045" width="9.65395086" height="9.67200282"></rect>
                        <rect id="Rectangle" x="0.371963563" y="49.2338354" width="9.65395086" height="9.67200282"></rect>
                        <rect id="Rectangle" x="17.6447543" y="49.2338354" width="9.65395086" height="9.67200282"></rect>
                        <rect id="Rectangle" x="34.9218205" y="49.2338354" width="9.65395086" height="9.67200282"></rect>
                        <rect id="Rectangle" x="52.1946112" y="49.2338354" width="9.65395086" height="9.67200282"></rect>
                        <rect id="Rectangle" x="69.4716774" y="49.2338354" width="9.65395086" height="9.67200282"></rect>
                    </g>
                </g>
            </g>
        </g>
    </g>
</svg>