<?xml version="1.0" encoding="UTF-8"?>
<svg width="280px" height="180px" viewBox="0 0 280 180" version="1.1" xmlns="http://www.w3.org/2000/svg" xmlns:xlink="http://www.w3.org/1999/xlink">
    <!-- Generator: Sketch 54.1 (76490) - https://sketchapp.com -->
    <title>Group</title>
    <desc>Created with Sketch.</desc>
    <g id="Page-1" stroke="none" stroke-width="1" fill="none" fill-rule="evenodd">
        <g id="01_holmusk_tech_blog_home" transform="translate(-241.000000, -1154.000000)">
            <g id="Group-3" transform="translate(241.000000, 1154.000000)">
                <g id="Group">
                    <rect id="Rectangle-Copy-3" fill="#1649BF" x="0" y="0" width="280" height="180"></rect>
                    <g id="icon_product_lunch" transform="translate(108.000000, 58.000000)" stroke="#FFFFFF" stroke-linecap="round" stroke-linejoin="round" stroke-width="1.80537313">
                        <path d="M32.1082587,0.267462687 C32.6088609,0.262531901 33.078197,0.510370113 33.3564179,0.926567164 C40.0353554,10.7312683 40.3800235,23.5312714 34.238408,33.681194 L29.9749254,33.681194 C23.8333099,23.5312714 24.177978,10.7312683 30.8569154,0.926567164 C31.1365572,0.510308453 31.6068134,0.262616267 32.1082587,0.267462687 L32.1082587,0.267462687 Z" id="Path"></path>
                        <polyline id="Path" points="38.5910448 22.3331343 41.6541294 25.9343284 37.8714428 38.1834826 34.2670647 33.681194"></polyline>
                        <polyline id="Path" points="25.6222886 22.3331343 22.559204 25.9343284 26.3418905 38.1834826 29.9462687 33.681194"></polyline>
                        <path d="M35.7094527,31.2485572 L38.5910448,34.760597" id="Path"></path>
                        <path d="M28.5038806,31.2485572 L25.6222886,34.760597" id="Path"></path>
                        <circle id="Oval" cx="32.1082587" cy="10.3546269" r="2.34029851"></circle>
                        <path d="M32.1082587,41.7241791 L32.1082587,56.8899502" id="Path"></path>
                        <path d="M35.2987065,39.4443781 L35.2987065,48.9297512" id="Path"></path>
                        <path d="M28.9146269,39.4443781 L28.9146269,44.1281592" id="Path"></path>
                        <path d="M19.6616915,2.78925373 C5.72837424,8.70571971 -2.11338271,23.6139521 0.905493992,38.4473025 C3.92437069,53.2806529 16.9692329,63.9380501 32.1066667,63.9380501 C47.2441004,63.9380501 60.2889626,53.2806529 63.3078393,38.4473025 C66.326716,23.6139521 58.4849591,8.70571971 44.5516418,2.78925373" id="Path"></path>
                        <path d="M19.6616915,11.2047761 C10.0999474,16.8202802 5.48335775,28.1435778 8.39306979,38.843784 C11.3027818,49.5439903 21.0178959,56.970061 32.1066667,56.970061 C43.1954375,56.970061 52.9105515,49.5439903 55.8202635,38.843784 C58.7299756,28.1435778 54.113386,16.8202802 44.5516418,11.2047761" id="Path"></path>
                    </g>
                </g>
            </g>
        </g>
    </g>
</svg>